<?xml version="1.0" encoding="UTF-8"?>
<svg id="a" data-name="レイヤー 1" xmlns="http://www.w3.org/2000/svg" width="1200" height="1200" viewBox="0 0 1200 1200">
  <path d="M1039.9445,0c12.6914,1.8769,23.7277,1.0892,35.3665,6.2637.8405.3737,9.5961,9.5151,9.7713,11.1233l7.2139-.959,4.0747,8.4726,4.6619-1.0533c1.822,7.8693,13.8415,12.3112,17.2637,17.8181,1.3667,2.1992.4097,4.8273,1.3845,6.7226,1.5736,3.0596,8.2289,11.8905,8.9344,13.8241,1.5156,4.1537-.5749,12.0862,3.8583,13.4369l.0058,2.4915c-6.3818,2.5407-.0176,4.0788.1186,6.1972.1676,2.6065-.7865,5-1.266,7.4826l3.6124,1.9614.0316,1.8516c-6.3447,3.5503-3.8799,13.2798-5.0641,18.4975-.1968.8672-2.082.8856-2.3475,1.8558-3.0057,10.9828-2.5942,15.0549-9.3201,23.5036-3.1761,3.9897-7.4771,7.3187-7.0556,13.0299l-2.3789-1.1748c-2.84,2.2809-1.0708,9.495-1.4233,9.8681-.2612.2765-6.2724,1.9552-7.0503,2.8586-.6357.7382-3.9546,8.3461-2.8725,9.6847-7.8317-1.6456-4.4889,3.8501-6.61,7.1706-.5705.8931-3.6973,1.8401-5.2557,4.125-6.0928,8.933-13.0954,14.7662-19.4277,23.0596-4.0188,5.2635-6.7955,12.7882-9.926,17.2653-2.2203,3.1755-12.9064,12.5795-13.4781,13.7267-.7415,1.488.1123,3.8172-.5034,4.5306-.4312.4996-2.8254-.3414-3.6908.8588-1.1465,1.59-.7201,6.1327-1.2712,6.6393-.5933.5454-3.4223-.2263-4.8688.7231-.4546.2984-3.4942,6.5382-5.0154,8.4124-2.434,2.999-7.4472,5.2722-8.39,6.34-1.3925,1.5771-5.133,11.3905-5.6206,11.8809-.902.9072-4.5296.5678-6.0237,2.1177-1.1959,1.2405-7.0224,14.1958-10.259,15.3949-1.2812.4747-2.7394-1.4184-4.0168.2253-1.4518,1.8682-2.6755,6.6104-4.4941,9.0793-1.3712,1.8616-4.9156,3.7281-5.9099,5.5678-1.0276,1.9014-.8895,5.2403-1.8118,6.355-.794.9595-3.4018.9259-4.6748,2.1831-2.4546,2.424-12.7996,18.5003-14.9422,19.9665-1.7076,1.1685-4.6573.9304-6.0385,2.2097-1.9441,1.8006-3.7879,9.133-5.2334,11.3148-.8833,1.3332-2.9754,1.4586-3.8177,2.6971-2.867,4.2153-6.3591,14.9962-12.4881,13.1825l1.2458,6.2433c-7.1063-1.0348-6.782,4.0168-9.6017,8.4799-7.074,11.1972-13.3371,20.788-20.8162,32.3891-1.0302,1.598-8.6036,8.2195-7.0821,10.4043l2.4798-1.2718c1.5124,5.3168-2.3085,4.5203-3.7599,8.1082-2.547,6.296,2.8745,8.5751-4.9765,12.5368l2.6426,2.435c.8943,3.1038-2.7677,6.6739-2.714,8.7791.0124.4844,3.8401.244,2.6095,4.9048-.3623,1.372-3.0804-.0689-2.5338,1.9856l2.6118.7562c-3.2762,6.4214,1.2329,5.5631,2.0209,7.0021.9213,1.6825,1.0955,9.3341,1.6441,11.3916.2847,1.068,4.4632.8988,1.206,7.1032l4.9941,1.3058-1.2382,6.202,4.9617.0529c-2.5805,5.2707,5.8645,9.5432,6.042,10.1495,1.555,5.3103,3.8412,13.5166,6.8516,20.1164,1.6454,3.6071,5.0326,5.3235,5.6253,6.7978,1.2964,3.2249,1.0033,6.2585,3.184,10.6493.5973,1.2027,5.782,6.4367,5.8618,6.8816.4488,2.5021-1.5886,5.0786-1.3204,7.0612.1016.751,1.9397.7442,2.1325,1.1998,1.0398,2.4576,2.3746,7.3454,3.6162,9.5536,3.2471,5.7754,2.0121,4.1223,3.9021,11.0838,2.066,7.61,8.0495,17.7987,10.1475,24.9708.5725,1.9569-.8825,4.2138-.378,5.347.7194,1.6159,4.0506,1.8339,4.4079,3.2824.5946,2.4105-.4495,5.946-.1282,8.5919.2728,2.2466,2.2066,1.544,2.5441,2.6793,1.6911,5.6883.1988,14.6331,1.3333,19.501.2394,1.0273,2.576.4433,2.6267,2.6813.0537,2.3738-1.4938,4.8106-1.4311,6.2086.0225.5014,1.6855,4.5016,2.5497,8.6196.206.9815,2.2989.3159,2.5896,2.6809.6395,5.2038-2.5493,4.5318-2.5219,4.9611.3292,5.1689,4.5475,10.7255,3.6286,17.5142-.2125,1.5698-1.9967,3.0133-2.0126,3.8273-.058,2.9718,5.9702,3.9201,4.5767,8.5898l-2.4909.8029-.0102,2.4582,2.3188.555c-3.4392,4.9594,2.2704,4.9596,2.6857,6.5815,1.3279,5.1863-1.1035,13.2752-1.1001,18.4205.0035,5.2877,1.8535,11.035,1.1616,16.4222-.3118,2.4279-2.4754,1.8397-2.6185,2.4188-.6325,2.5586,3.6015,3.3847,2.6256,10.0918-.4015,2.7595-2.304,1.5077-2.5587,1.8112-2.3183,2.7632,4.0221,1.7871,2.448,4.9456-7.8076,1.658-.3129,4.6982-.0301,5.9013,1.8065,7.6858-3.1393,7.0854-3.3665,8.3899-.255,1.4645,1.4213,6.7265.969,10.1778-1.0626,8.109-5.1046,19.68-6.2106,27.4717-1.3428,9.4605-.0133,22.3791-4.2359,30.2776-.2038.3812-2.0651.2996-2.1762,1.101-.4008,2.8893,2.5468,9.827,1.3663,14.6379-.4457,1.8166-3.944,1.0881-4.8163,2.3236-.6837.9684-.3511,3.9777-1.0899,5.7322-6.4293,15.2682-9.5284,33.5871-15.7593,48.7013-10.0493,24.3763-28.0467,52.8405-43.2898,76.3405-6.3036,9.7181-17.8589,30.8063-26.3627,36.9571-.6699.4846-2.3434-.4866-2.4093-.384-3.4343,5.3537-4.3565,11.7823-11.7216,16.9906-1.945,1.3754-5.3862,1.4513-5.7128,1.8412-.7351.8777.3936,6.1705-1.7071,8.3134-.8426.8596-2.9651.7529-3.7403,1.4835-9.4658,8.9219-19.313,17.4305-28.428,25.6834-1.7579,1.5917-1.6947,3.9882-3.4615,5.6946-1.3196,1.2745-8.6508,5.6437-11.1117,7.898-1.1692,1.0711-5.0675,6.1528-5.4696,6.3511-2.2068,1.0888-5.2496.2184-6.0514.874-.3643.2979-2.8588,7.1826-3.9583,8.5379-1.7394.8622-1.0188-3.8925-2.4672-2.4815-.4485.4369-3.1826,5.5115-4.1149,5.9347-6.2278,2.8273-14.3494,5.865-20.8285,9.7586-2.8234,1.6968-9.8417,10.5817-12.3201,11.7506-3.1931,1.506-5.8955,1.7903-9.8344,3.6675-3.5375,1.6859-9.1977,3.5017-13.7686,5.5844-2.6157,1.1918-2.4759,7.6385-9.1436,3.2888l-1.2793,5.001-1.8534-2.4865c-1.4922.6912-7.1938,6.2766-7.6901,6.3073-1.7034.1056-3.3356-1.3082-4.7013-1.32-1.17-.0101-17.7893,9.7624-18.3718,11.1263-4.002-2.166-4.8761,3.4333-11.1152,1.3963l2.487,2.4756c-6.1523-2.9119-6.2922,1.0844-7.0745,1.2613-3.9588.8955-7.0762,2.4401-7.5097,2.5301-4.5498.9449-4.5442-2.6575-10.709,1.2776-3.162,2.0183-5.6126,2.4902-10.4043,3.6425-6.9573,1.6731-8.8656,1.7357-16.2423,1.4824-.4409-.0151-5.9905,4.6952-6.4209,4.7918-2.2319.5008-4.8092-.4357-7.0437.046-.9047.195-.7593,2.2254-1.7032,2.4533-5.9593,1.4389-13.3357-2.5722-18.5713,1.279l-1.1966-2.5303c-3.3091-1.43-4.5792,4.3706-6.5754,4.9368-5.7476,1.6301-10.6797-.0896-15.8337.0866-8.7502.2992-20.8242,2.299-28.9654,2.3766-10.1383.0966-36.1985.0137-43.6437-3.6167-1.8795,6.1575-8.8379.7317-11.2319.6193-4.802-.2256-11.1705,1.4044-16.3457.7275-2.3133-.3025-1.6034-2.3185-2.6566-2.5666-11.705-2.7571-19.617-2.3395-31.0584-5.8924-10.6846-3.3179-21.2344-4.1572-31.6055-7.7358-5.8408-2.0154-11.363-2.502-16.8301-3.9408-1.0878-.2863-.8449-2.2753-1.7461-2.4857-2.7904-.6515-5.239,1.2066-7.9111,1.26l1.2692-2.4808c-4.5449,3.101-16.1027-8.7334-17.09-8.8115-4.4557-.3525-1.6355.9063-5.8039-.777-5.9712-2.4113-10.8271-3.0781-17.3644-5.5446-1.516-.572-7.603-5.1375-9.5002-5.9861-12.7234-5.6907-22.8938-10.8314-33.2065-17.1847-9.8893-6.0924-21.3069-12.9562-29.191-17.9836-4.9755-3.1727-5.2317-6.0068-6.6566-6.8554-13.3172-7.9314-33.1002-22.003-43.7934-33.9819-.9544-1.0691-1.0414-4.0511-2.9976-5.5547-2.1175-1.6276-4.1825.2544-4.356.1219-.3521-.2688-.4089-3.4682-1.6149-4.6732-1.1088-1.1078-3.745-.8663-5.2656-2.8455-1.5185-1.9766-1.6341-5.9609-3.5848-8.3042-2.3269-2.7953-10.2138-6.3706-12.9098-9.5798-2.6751-3.1842-2.3011-6.7939-3.2034-8.0491-.7145-.9939-3.4666-.725-4.4692-1.773-1.4149-1.4789-1.9969-6.2219-6.2074-9.8001-7.0545-5.9953-12.9424-18.1358-19.0568-26.8802-.8876-1.2693-2.9175-1.3523-3.8292-2.687-1.849-2.707-6.0978-13.1243-7.7216-15.0733-1.045-1.2543-4.5639-1.3312-4.7265-1.5695-.4338-.6361,1.3192-2.6879,1.031-3.5462-.0856-.255-4.1596-2.3437-4.4415-3.034-2.2313-5.4644-15.1417-28.7555-15.3592-30.4962-.579-4.6336,2.9132-8.2614-6.2243-9.1749,2.202-4.8585.1529-9.0139-2.0307-13.5716-3.9129-8.1671-3.9932-7.1445-6.8146-16.7022-.4621-1.5655-4.9104-8.6769-4.9533-9.2709-.2314-3.2052,1.3529-6.065-1.2365-10.4487l-2.4486,1.2593c3.1629-6.26-1.0221-6.1842-1.2464-7.0976-.6858-2.7928.5986-6.5824-.054-9.5321-.9689-4.3793-8.6583-18.9381-9.9314-24.244-.7817-3.2579.4827-8.1068-.039-11.6476l-2.4803,1.2665v-5.0172s2.48,1.2673,2.48,1.2673c1.9773-4.3732-3.4144-8.7564-3.6932-9.6845-.3986-1.3266.2985-3.1445-.034-4.4738-.3205-1.2812-2.3251-.7478-2.4422-.9064-1.9131-2.5913,2.1665-2.2442,2.4399-3.2533,1.8285-6.7509-4.455-6.2521-1.161-12.2056l-2.6636-1.3879c4.445-7.7301.3067-6.0076-.0459-8.6314-.9605-7.1473-1.7733-74.7594.4523-77.9638.2697-.3884,1.4808-.259,2.0963-.3091l.0775-1.8221c-6.6614-2.8387-.067-6.0422.0132-6.4884.5503-3.0644-.2326-11.9957-.0406-16.0274.4139-8.6922-.436-3.6871-1.2235-6.4536-1.5626-5.4893,2.2674-5.4877,2.456-6.2752,1.1723-4.8949.1677-10.8345,1.7944-17.8205,2.5718-11.0451,5.198-23.4648,8.6024-35.2968,1.972-6.8537,1.7335-13.4158,3.3468-20.1701.3076-1.2879,3.0609-1.2088,3.6092-2.8713,1.1186-3.3919,1.1809-9.3015,1.3778-12.1547.0257-.3719,4.5297-4.4532,4.9074-5.6142,1.5521-4.7706,2.0439-7.9028,3.7462-12.5081,3.2893-8.8988,5.3943-13.2552,7.7192-22.0202,1.864-7.0274,9.9195-17.8792,13.3472-25.4009,1.2222-2.682.8274-5.9399,2.0408-8.6425.5242-1.1676,4.9692-3.3152,5.5575-5.0208,2.983-8.6481,3.3087-4.5187,6.3273-9.9249,1.1794-2.1123,3.948-11.8769,5.3891-12.7631,1.1844-.7284,3.8091.3016,4.6158-.3276.5703-.4448.6002-4.9067,1.4205-6.4163.8301-1.5277,3.1237-1.6277,4.2673-3.5237,2.2119-3.6672,4.5911-10.8325,6.4276-13.5999,1.4005-2.1105,9.5398-8.2083,9.97-8.7977.8123-1.1127.139-3.4371.9567-4.6715,1.2587-1.9002,6.2143-4.7306,7.7812-6.5402,6.1007-7.0457,10.6077-13.0508,16.3256-18.7251,2.4706-2.4518,6.1027-2.8842,5.5215-7.6186l3.7275,1.2789c-.8838-3.8653,3.444-4.8556,3.5677-5.1775.4281-1.1141-2.8332-2.5869,2.4667-5.9802,8.3361-5.3374,12.7911-10.5358,21.1652-15.3786.8623-.4987,8.9351-10.3284,13.7033-13.477,2.2129-1.4612,13.3898-6.2261,14.172-6.8999,1.6475-1.4192,2.7379-8.1247,6.5659-10.2066,6.705-3.6468,13.9446-7.0733,19.8393-11.7859.8845-.7071,1.3444-1.1239,1.06-2.351,1.781-.8353.9915,3.8761,2.463,2.4771.2864-.2723,3.6192-5.8916,3.9611-6.0032.8446-.2756,2.0339,1.2537,3.2389.7509,1.7547-.7321,8.4475-7.5788,11.2396-8.322,2.0281-.5398,4.2042,1.1169,5.3974.4527.9776-.5442,2.8479-5.4107,7.4379-4.3871l-1.2631-2.4732c7.8825.6743,11.7349-4.6244,18.5399-7.1055,7.7392-2.8218,15.2154-5.5083,20.587-7.4592,7.8009-2.8333,16.7201-4.022,22.8371-6.605,2.5102-1.06,4.8539-3.7282,5.1646-3.8081,4.7795-1.2299,6.049,6.8693,9.0443-.6771,8.272-2.0315,17.736-4.88,26.7429-6.8739,4.1419-.9169,12.3506-2.3851,17.4547-3.7939,1.0409-.2873.8442-2.1856,1.7597-2.4128,4.1515-1.0304,8.3454,1.6187,10.8501,1.2803.8327-.1125.5885-2.2559,1.6689-2.5394,2.7628-.7251,4.9207,1.6288,6.0013-2.537l1.8042.116c1.0358,6.3357,3.6629.0513,5.609-.1946,4.5015-.5689,9.9411.9996,13.8424.725,1.1047-.0778,2.6406-1.7981,4.9193-1.9412,4.5525-.2859,9.2021.3814,13.7653-.0254l1.3021,3.8325c5.2993-6.3054,18.2177-3.8827,26.0799-3.6641l.8205-2.5702,3.0174,2.5996c4.8121-.8792,11.7067.879,16.1132-.1369.8241-.19.7829-3.8506,5.1011-2.5163l.7707,2.5317,2.4655-2.478c-.5883,4.1681,3.8029,1.9727,6.8528,2.5643,2.8046.544,5.4465.7459,7.352,1.1184,1.2178.238.6876,2.35.8665,2.487,2.5696,1.9673,2.25-2.1838,3.2537-2.4483,1.3874-.3657,6.8563-.3052,8.3404.0477.9281.2206.7455,2.2011,1.7207,2.437,3.3853.8187,11.4029-1.256,11.6562,3.7586l2.4748.0167.6291-2.5061.6371,2.5136,2.471-2.4883c.0711,4.4531,12.2852,2.3798,16.6059,3.7393,1.5391.4843,1.4246,2.8611,2.775,3.7322l4.364-3.7158c3.6143,8.0738,17.2188,4.7404,24.1604,6.2552,3.0002.6547,18.5732,9.191,21.7809,9.9493,4.7352,1.1193,5.682,2.5407,6.053,2.5583,1.7454.0829,4.1278-1.8646,7.1582-1.2852.8845.1691.9366,2.0556,1.823,2.4242,2.6501,1.1021,6.9154.1709,6.5746,3.8216l2.4648-2.4787,2.0328,5.049c2.6489.1506,4.7133.5972,4.2525-2.5447l1.2149-.0027c-.1676,1.903,1.4946,3.1639,3.071,3.9013,5.6893,2.6611,10.8735,4.7015,17.3809,6.0869.982.209.771,2.4136,1.3533,2.3741,8.6173-.584,4.2178,1.0248,7.4953,1.4748,3.3616.4615,9.4708,1.0074,10.1033-2.6099,2.5657-.5468,1.0838,4.2548,7.317,2.5366l2.032-2.511c-.4463,3.1173,1.5392,2.7692,4.227,2.4905l1.5356-2.5093,2.9967,1.2691c.4642-7.0974,2.9695-3.9454,6.6934-5.2069,7.9681-2.6993,23.1774-20.1912,30.8899-26.6457,6.4482-5.3965,3.1676-3.7625,6.4918-7.8538.9432-1.1608,5.0441-1.6109,7.2213-4.6511,2.1569-3.0119,4.8099-9.0942,6.0687-11.6872,2.353-4.8471,1.1188-8.5443,1.3926-8.9338.142-.202,3.2024-.4223,4.6498-1.6632,2.0625-1.7682,3.3509-6.306,4.9332-8.2257,1.5109-1.833,5.6677-4.459,6.7034-6.0705,2.0334-3.1637,4.1184-12.3399,6.1434-14.7891,1.4554-1.7601,3.9391-.6305,5.1194-2.2718,1.6925-2.3536,4.464-12.0208,6.5406-15.4543.5643-.933,2.7417-1.029,3.4172-2.1996l-2.487-1.8544c3.2409-1.1319,8.5112-7.4278,10.0917-10.5415,6.5559-12.9159,14.8866-25.723,22.7545-38.5388,1.0191-1.66.976-4.6031,2.0904-6.3058,1.2929-1.9754,7.2429-4.6255,8.8472-6.8057,2.6255-3.5681,6.3647-14.8796,8.789-19.3654,1.9776-3.6592,5.1881-10.7592,6.6649-13.1538,1.2354-2.0031,8.0621-6.8806,9.4893-9.9533,5.0368-10.8442,11.1838-21.2563,18.771-31.894,9.807-13.7499,20.9108-26.7719,32.4465-40.0323,5.6947-6.5461,15.4455-14.6186,24.3819-21.0156,2.1329-1.5268,9.7419-1.8442,6.9203-6.1664,2.585-.7364,5.8683,1.582,7.9507,1.2856.7637-.1087.7474-1.9395,1.1984-2.1323,6.9047-2.9518,15.3777-3.2387,23.8787-4.2557l1.9827-1.1601h5.0005ZM1039.4205,69.3124c-1.9795-1.0241-6.358-4.1762-7.612-4.3189-6.4637-.7356-10.8942,6.977-14.7868,10.8519-7.1832,7.1504-8.6435,12.044-14.5467,19.4743-2.7365,3.4445-9.2742,6.3273-11.4238,11.5058-.8271,1.9926.3147,4.0319.0991,4.3151-.3967.521-3.4218.4612-4.6639,1.6734-3.0369,2.9638-5.4521,11.3909-7.299,14.6181-.6828,1.193-5.1071,3.9541-6.2697,5.5365-3.2229,4.3864-10.071,15.9097-12.2778,20.8968-1.7706,4.0014,1.3098,7.0527-5.7043,7.4117l1.2415,6.2479-2.4825-1.2832-.0144,3.7822-4.9848-1.2548c2.2198,7.7472-.4278,5.0133-2.1284,8.4742-1.0855,2.2089-5.7095,14.139-6.7935,15.066-.9014.7708-3.3711-.1858-4.7068.3161-1.1014,1.7466-.2402,6.3436-.8551,7.4608-.8999,1.6349-3.1777,1.8-3.9142,2.79-.6826.9174-4.4035,10.2679-5.4495,12.4254-.7339,1.5137-3.9441,1.8679-2.5645,7.142l-3.4296.1933c.9544,4.3802-1.8312,4.4684-2.5828,5.8609-5.9192,10.9664-15.6594,30.1528-22.9995,41.1327-1.7938,2.6833-8.3244,4.2326-5.8456,9.1357-6.2946-3.2586-5.7846,5.9583-7.9413,9.5736-1.9042,3.1921-6.3555,7.2604-8.6667,11.9829-.9022,1.8435-1.2466,5.7976-2.4153,6.9225-1.4373,1.3834-5.0989.9671-5.7578,1.7603-.4881.5875-.1966,3.4505-1.3874,5.4599-2.4159,4.077-9.3776,5.0984-6.3211,11.8092l-4.8469.1471c-.1442,5.316-5.1154,5.6476-2.6615,9.8506-5.5197-2.0437-7.0398,4.9565-10.0721,6.8083-1.5694.9584-3.8372.3578-4.688.9287-.8881.5959-.848,3.76-1.7585,5.1632-3.7024,5.7058-13.8698,7.874-16.7778,12.5293-1.0951,1.7532-1.3437,3.8622-1.7202,5.8406-6.2635-2.7365-4.0051.2246-6.4987,1.6742-3.332,1.9369-6.6003,3.4843-9.7068,5.8615l.8075,2.5735,7.2899,7.3799,1.8538-2.4873c2.7274,5.6045,9.1249,9.6331,13.4153,14.0362,1.7544,1.8004,8.7921,8.2619,10.8415,11.0329,2.545,3.441,2.2313,8.4131,7.6626,9.9062,3.3993.9345,1.2191-8.6906,3.2117-10.2455,4.1835-5.5536,7.2755-13.8392,9.7765-19.5283,3.9961-9.09,18.8969-34.4886,25.9066-41.2985,6.789-6.5956,10.8154-12.2583,16.1673-20.0954,8.2128-12.0265,20.7715-21.7622,28.2004-35.3065.7866-1.4342,3.2144-.6073,1.0867-3.5073l4.8527-.1552c.6715-5.6213,4.9921-8.0845,7.9586-12.7082.9266-1.4442.4942-3.8635,1.3993-5.5028.9252-1.6755,5.7811-4.107,7.0938-5.9676,1.481-2.099,1.6328-5.5015,2.7368-6.7069,1.8771-2.0493,3.3326,1.0537,9.2662-7.609,4.3621-6.3684,9.5086-13.0271,14.1914-19.7775,1.8284-2.6357,1.1062-8.5022,7.4896-6.5911-1.9002-10.4238,4.7795-7.9389,7.2482-10.3608.7289-.715,3.5209-7.7548,4.1358-8.6302,9.972-14.1966,21.4131-25.9469,31.1265-40.4065,3.4356-5.1143,10.7847-11.2051,13.6393-16.6209.8298-1.5742.1635-4.6275,1.669-6.2213.4831-.5114,7.2117-4.5493,8.4692-4.0302-3.8563-8.7713-.0539-6.2382,2.8145-8.6757,5.2661-4.475,6.0205-9.9871,8.7974-14.6882.3868-.6548,2.9192-1.1839,3.3428-3.5615l-.1357-1.6846-2.3138-.145c-.016-1.6982,2.4195-1.6807,4.3069-3.7988,4.3398-4.8702,1.1912-5.6849,1.8384-9.0763.3603-1.8882,5.907-.6283,2.5392-6.2032-2.5755-4.2633-1.3336-2.6509-2.7753-7.4657-1.5618-5.2157-7.5439-7.3301-11.8138-8.8862-.4485-.1635-.3576-1.9103-.908-1.8926-1.9973.0642-4.325,1.5289-7.6238,1.1966-2.0464-.2061-1.8108-1.7773-2.3501-2.0563ZM512.675,339.6019c-5.1744-2.4007-8.1568-.1178-14.6679.4165-8.1063.6651-9.7686.9371-16.4713,2.4862-6.0121,1.3895-18.2847-.1042-24.5392,1.3011-.9917.2228-.3435,2.2818-2.6498,2.5784-3.751.4825-6.436-1.1057-8.9143-1.2076-.5916-.0243-.3959,2.1226-1.367,2.3461-4.0773.9383-10.4205-.9152-14.545.0512-3.1437.7366-6.3767,2.5979-12.4803,3.7311-.3662.068-4.8067,4.5897-5.6529,4.8519-3.4111,1.0572-9.0952.5142-11.8299,1.3794-1.4395.4554-1.2727,2.5806-2.6843,3.2754-3.8383,1.8893-11.9354-2.5608-13.8494,4.201-5.8576-5.076-5.0286-.7269-6.5738-.06-4.7787,2.0624-25.7871,12.439-27.3565,12.5351-6.6849.4092-5.0364,3.0093-8.4823,4.5579-1.8119.8143-6.6154-.2681-9.1626.8507-.6513.2861-11.0392,7.0802-11.6811,7.6465-1.4856,1.3105-2.3234,4.2967-2.5393,4.4332-.752.4751-2.5613-1.2223-3.4119-.9551-.5876.1846-6.9915,7.6383-7.9616,8.325-.3472.2458-4.9538-.5622-8.0472,1.8778-1.5778,1.2446-5.0499,7.7326-5.6928,8.1366-.7236.4547-2.5433-.9069-3.546-.4456-1.7134.7883-1.9649,3.7162-2.7015,4.2044-.6679.4427-2.334-1.1121-4.1584.0307-2.8532,1.7872-3.5065,6.4204-4.6398,7.3294-6.1182,4.9072-5.708,2.2914-12.118,9.7087-3.6439,4.2166-5.0961,2.8788-7.5797,3.925-4.2564,1.7929-13.8688,18.2339-19.6783,21.7839-1.3541.8274-4.1173-.2159-4.7373,1.0198.9795,8.1022-4.8082,6.3248-8.6089,10.1773-6.8359,6.9291-9.0175,13.2513-13.5684,19.5907-3.8313,5.3369-9.1828,5.2984-13.0735,13.8245-1.9562,4.2867.342,8.848-6.5618,9.103l.9827,2.2059c-8.9102,3.413-10.5447,20.3111-13.8825,24.8648-.9478,1.2931-9.7445,9.1973-10.2377,10.3013-1.7341,3.8817-3.5482,13.8551-5.9799,19.7649-.9518,2.3132-8.5178,6.5253-4.8909,12.5513-7.422,2.97-2.2484,5.6633-3.4739,10.6323-.2745,1.1133-3.3925,1.56-4.7935,4.2482-1.7938,3.4418-.7941,6.6049-1.5734,9.4555-1.7365,6.3516-7.6886,16.8792-9.8188,23.1438-1.7824,5.2419-2.294,9.8603-1.3729,15.287l-2.48-1.2667c1.5668,5.6588-1.6494,9.9704-2.4,14.4947-1.5008,9.0467-2.2877,16.6621-3.9035,24.8408-2.1082,10.6718.1291,16.544-1.1086,26.3875-.3006,2.3909-2.409,1.2006-2.6986,3.581-1.7717,14.5634-2.1824,40.773.2141,54.9891.4926,2.9219,3.3443,4.5969,2.4018,8.6636-.2162.9327-2.4173.959-2.5412,1.438-.9416,3.6403,2.2572,2.8191,2.5093,3.9605,1.1404,5.1632.4194,15.293,1.1653,21.1293.2967,2.3215,2.3504,1.6363,2.5775,2.6423,2.0796,9.2132,1.6297,21.5923,3.7869,30.8128.2206.9428,2.4382.7923,2.5468,1.623.2849,2.1802-2.034,5.3157-1.3271,8.3617.116.4996,4.9073,7.1263,4.8786,7.6384-.3536,6.3167-.1446,6.2234,1.4056,12.351.2796,1.1051,2.3906.8181,2.3475,1.4035-.9561,12.9877,2.9168,12.6246,7.5529,21.6847,3.4762,6.7935,4.8331,16.354,8.766,23.4708,1.5089,2.7304,4.3365,3.9189,5.0366,5.2856,3.4242,6.6848,4.7812,16.1508,10.032,24.6054,2.3329,3.7563,5.8779,4.3889,5.1757,9.3029l3.3992.2224c-.9854,4.9597,1.8803,5.9973,3.2484,8.744,3.317,6.6595,9.3486,13.9153,14.3533,20.2438,2.7537,3.4822,2.5314,4.0953,4.2777,6.76,2.0714,3.1608,5.2722,2.0314,4.7639,8.954,8.1657-1.7849,8.0308,10.1637,10.9747,12.1506.8216.5545,2.6516-.9665,3.5015-.4726,3.4844,2.0244,3.2383,6.3072,4.6811,8.4225,3.8557,5.6531,14.3141,10.3716,15.6585,17.6095l4.8176-1.1711c.6221,4.0786,4.1735,4.7424,6.4483,7.085.6908.7114.8138,2.9113,1.8489,4.0419,1.6629,1.8164,4.2413,1.7697,5.3078,2.8323,1.2253,1.2209,1.361,4.585,1.5677,4.7236.3331.2235,3.8162-1.6802,7.0018,1.6384,1.5498,1.6145,2.1497,4.5877,3.3485,5.4807,2.6299,1.959,7.3599.0575,7.1472,6.6288,4.4295-2.8705,3.2005.4382,4.6936,1.1667,7.9315,3.8703,6.2051,6.5551,9.086,8.2646,1.1989.7114,2.7907-.6184,3.4517-.313.2181.1008.2083,1.6812,1.9555,2.3416,1.8982.7175,5.7845.5228,6.801,1.2824.8282.6189.6991,2.8457,1.4932,3.8166,4.0459,4.9465,7.8188,4.2892,12.9232,6.1483,2.356.8581,5.8554,8.1924,10.0382,4.7076,5.6607,6.4323,14.0838,9.2039,21.3374,12.8101,2.0328,1.0106,5.5976-1.4137,5.7333,3.5065l2.4646-2.4792c.3373,3.2892,8.4931,5.0305,11.4875,6.3775,6.3639,2.8627,16.8838,7.9168,23.2503,9.7555,3.8421,1.1097,13.1508-.1987,12.8036,3.8453l2.4636-2.4766c-.1366,5.5973,11.3237.4294,11.2886,6.2266l2.4595-2.4749c2.4982,6.6893,7.763,3.5596,11.6478,4.1526,7.5193,1.1479,10.7339,3.6315,20.1793,4.6837,10.9554,1.2204,20.9288,2.2107,31.2805,3.6971,8.0002,1.1487,6.02-.312,11.3248-.1739,2.6834.0699,9.445,2.4617,12.4331,2.7456,7.3241.696,15.8137-1.4545,22.5625-2.0846,2.0054-.1872,4.839,2.3799,7.3246,2.0311.8149-.1143.6505-2.3023,1.6258-2.545,5.4058-1.3453,14.3245,1.8544,19.466-.1006,10.0498-3.8213,17.9756-1.2328,28.8153-3.7082.8718-.1991.8325-2.0104,1.842-2.3589,18.8905-6.5218,37.0476-9.4686,55.5753-15.2104.977-.3028.9121-2.1223,1.8549-2.344,2.9162-.6859,7.6924.3882,10.6874-1.2831,2.0909-1.1668,1.4233-4.1791,2.3793-4.8156,1.7815-1.1863,11.2065-.8652,13.9355-1.5015,1.4329-.3341,5.7199-5.7081,6.1229-5.9395,1.3009-.7469,3.6171.0895,5.1739-.4417,1.8865-.6438,1.708-3.0197,2.2739-3.4289.816-.5901,3.0561,1.458,4.8053.5875,1.7041-.8481,2.1105-3.9528,2.7341-4.3284.7101-.4277.9464.5748,5.1174-2.2605,8.2943-5.6383,19.1173-10.7463,28.267-16.1963,1.9269-1.1477,1.478-4.4846,7.5066-3.0611-.2669-8.48,5.1115-5.2455,8.5048-7.7516,1.3588-1.0035,1.8724-4.5281,3.2225-5.5227,2.4127-1.7773,7.8457-1.8665,11.7533-5.7361.9799-.9704,1.0108-2.9964,1.8215-3.8146,2.5147-2.5378,6.3274-4.8237,7.3331-8.3028l1.8527,2.4867c2.2276-6.434,6.5174-6.9524,9.9385-10.0612,17.1511-15.5861,40.5211-42.6726,52.0326-62.7125,1.8944-3.298,8.1897-5.0326,7.4438-10.9737l2.4436,1.2545c-.6616-5.3011,4.7591-8.3735,6.3424-10.8983,5.9947-9.5591,9.2539-18.7011,12.8242-28.7894.1909-.5395,6.586-6.2627,7.1961-7.0917,1.437-1.9526,3.2084-8.5217,4.723-11.557,1.2748-2.5546,5.8365-8.238,6.2037-10.0943.4712-2.3815-1.3995-4.6327-1.0681-7.0119.1658-1.1907,9.2738-16.7724,10.5041-19.8926,3.743-9.493,2.1945-20.4497,7.2003-29.9221.6323-1.1964,2.1318-1.1201,2.3156-1.8966,1.1513-4.8638-2.6837-15.6221,3.7831-16.6361l-2.4803-1.2376c-.9883-3.395,1.5692-2.0409,2.1668-2.7354,1.0953-1.2729-.1547-4.5862.2921-6.4615.2789-1.1706,2.3716-.7015,2.4749-.8425,2.0054-2.7378-2.9698-1.3243-2.5592-5.5434.4047-4.1585,4.1496-6.6171,1.2647-12.3998l2.5904-.7825-2.5215-1.847,2.5511-5.0069c-7.1557-3.366,1.5649-6.4156,2.4161-11.3203,1.9048-10.9751-.2134-25.8166.0131-37.4914.2363-12.183,1.8881-27.5491-.0092-39.889-.575-3.7396-4.6459-6.7777-1.3213-12.4975-6.0705-2.7106-1.231-4.4108-2.4076-9.7783-.4472-2.04-10.7917-9.1398-2.46-12.7763-5.6854-3.7863-1.2517-8.0424-1.4818-9.7714-.3554-2.6703-4.7088-4.9754-4.7939-5.4968-.6372-3.9031.6065-7.9863-1.3137-13.1936-.4366-1.184-2.3869-.9464-2.4761-1.7177-.2149-1.8572,1.5979-4.0934,1.3887-5.9388-.0634-.559-4.1075-7.3821-4.6662-8.6661-.9678-2.2247.6742-5.2145-2.8965-4.6274l2.4846-1.8514c-6.0374-2.5389-5.1674-9.4001-7.1008-14.122-.5924-1.4469-2.4528-1.1885-2.84-2.4287-.8388-2.6869,1.3275-6.3859-3.7995-6.5988l2.4845-2.4675c-4.4966.5447-1.2921-2.7675-1.9248-6.1742-.6325-3.4058-3.7056-4.8269-4.7044-6.6343-1.529-2.7668-6.7872-12.303-7.0445-13.1052-1.1632-3.6272-3.6785-8.2695-3.7952-8.765-.367-1.5581.4987-3.6712-.2811-5.0894-.5061-.9203-11.6669-9.781-11.925-10.5335-.938-2.7351.9616-4.7157.6011-5.7215-.114-.3179-4.1181-4.1249-4.6366-4.9109-6.9967-10.6061-13.6625-23.1266-22.0037-32.089-1.7446-1.8745-5.8599-5.2514-6.8368-6.6571-.974-1.4015-.6317-4.0357-1.4739-5.0558-1.1561-1.4002-4.8651-.9374-5.7819-1.706-.1671-.1401.7867-1.6984.303-2.346-1.5582-2.0861-8.747-14.1274-9.4365-14.7559-.2089-.1905-3.1868.7079-5.6147-.6681-5.0617-2.8685-14.7257-17.8386-19.792-20.9407-1.7477-1.0701-2.7049-.0721-4.4003.1443,1.6988-6.7076-6.903-7.7517-10.8124-10.4757-1.6116-1.1229-4.1034-5.5661-5.7337-6.2278-2.2691-.9209-5.1065-.2585-6.8838-1.1773-2.3444-1.2119-4.7899-7.3415-5.5924-8.1049-.7568-.7199-13.8549-6.7162-16.8912-9.3591-1.3487-1.174-1.3877-4.548-1.6096-4.6962-.6364-.4251-2.5577,1.3113-3.4843.9527-.3113-.1205-4.4258-4.6748-4.7595-4.6817-1.2008-.0248-3.5321,1.7474-4.2288,1.257-.2818-.1984-.4196-4.0772-1.5233-4.7741-.9027-.5699-3.036.011-4.708-.9366-3.0079-1.7047-6.0814-7.9332-11.7372-6.7374l-.8094-3.8076-2.4668,2.4802c.3548-1.0725-3.7311-4.5565-4.0207-4.6609-1.1099-.4001-3.3223,1.661-4.5852.8034-.4171-.2832-.7218-2.6924-1.9503-3.6778-3.1111-2.4956-8.1505-4.9427-11.5236-7.3031l-2.212,2.2427c-3.7183.0311-5.5887-3.0291-6.7835-3.4664-9.825-3.5961-20.3766-4.8397-29.9533-8.525-16.6109-6.3921-36.2313-9.1601-54.4211-12.9228-.9655-.1997-.7737-2.0701-1.4565-2.2897-1.2362-.3975-11.5972,2.3697-14.3849,1.0493l1.267-2.4808c-5.5385,1.5959-4.7609-2.2605-5.0459-2.4842-.2391-.1876-2.9239,2.2205-5.5187,2.5472-2.4058.303-11.5962.4034-13.5918-.0931-.9402-.2339-.7391-2.2849-1.7164-2.482-1.8351-.3701-15.3744-.3537-17.3498-.0934-2.4231.3192-1.6184,4.4373-6.5121,2.1668Z" style="fill: #441800;"/>
  <path d="M590.896,470.3893c.6634.4614-.6928,2.7595,2.1244,2.1674,1.1507-.0969.1718-2.2503,1.4373-2.5583.6611-.1609,12.1791-.1947,13.6086-.0919,2.4303.1748.892,3.3945,6.2595,2.7521l3.0609-2.6027c-.1221.9286-.2293,2.0662.8978,2.4515,4.7215,1.6139,11.8317-.4154,16.8915,1.4098,2.2335.8056,9.5305,5.2681,11.9042,6.0522,1.9759.6527,4.8931-.1071,7.0187,1.2066,1.6908,1.045,1.2445,3.9255,2.3418,4.8563,2.0295,1.7215,6.0815-.6537,11.7417,5.7175,5.2563,5.9166,7.734,12.9157,11.8441,18.7798,2.6438,3.7721,5.9591,1.5766,3.6472,9.5003l3.7575.0252-1.2773,2.4824c2.1089.332,5.5312-.7133,7.2523.2815,1.238.7155,9.072,11.7354,10.2803,13.8395.5393.9391,2.3597.7488,2.3119,1.4365-.2776,3.9939-1.1882,8.4803-1.1569,12.5468.0199,2.5817,1.6287,5.9071,1.4202,7.3512-.1247.8636-3.5962,1.7686-4.9625,4.068-.9757,1.642-6.2549,14.9081-7.3014,17.702-1.1233,2.9989-1.1565,11.6806-1.7549,12.6206-.4937.7755-3.5839.5512-4.5479,1.7067-.8821,1.0574-1.3482,5.9974-2.4296,8.1569-2.5598,5.1118-10.3719,14.1178-11.2329,19.8793-.3003,2.0098,1.4979,4.3988.7984,6.585l-4.7751,1.4922.9959,8.4254c-6.7159,1.9555-3.5005,3.7782-3.6675,6.927-.1332,2.5115-16.2688,38.2906-18.7319,44.1058-3.5387,8.3546-2.365,14.3331-4.7951,21.176-.6605,1.8599-3.1951,2.754-4.4242,5.5786-1.5025,3.4531-7.6442,23.8475-7.8969,26.5831-.3513,3.8041,1.93,9.8683.9069,13.7026-.3778,1.416-3.2127,1.306-3.4426,2.6332-.1168.6744.7287,12.8226.9213,13.6572.2061.8926,2.0734.8479,2.1615,1.0495.315.7208-1.0625,2.3686-.636,3.7936,1.0897,3.6403,8.6953,13.6751,11.5733,16.0912,4.1444,3.4793,11.7576,2.5224,16.0732,3.63.9461.2428,1.3319,6.3385,4.1209-.0409,5.6634.7252,11.3546,2.9056,14.2189-3.6799l2.4636,2.476c-.1557-4.1955,4.293-2.8408,7.1119-4.1935,1.0278-.4932,2.8902-4.2446,3.1423-4.3346,1.4249-.5088,2.7979,1.0381,4.0277,1.0485,1.1997.0101,16.5195-12.5841,17.9545-14.0329,1.1132-1.1238.9479-4.0498,1.7213-4.5395,1.8628-1.1796,9.8601-1.3529,13.5648-5.8284,1.5952-1.9271.7978-4.0097,1.5747-5.2753.7825-1.2747,4.9752-2.0031,5.6409-3.159.6517-1.1317-.0971-3.2011.6479-4.2941,1.1509-1.6887,5.6759-4.3737,7.1838-5.9623,6.5795-6.9318,5.4935-9.8817,16.8022-9.4211,1.3638.0556,9.905,1.3016,10.3545,1.5701.5036.3007.7267,1.9481,1.6955,2.6535,1.0871.7915,2.9427.5322,3.7175,1.5755.8744,1.1773.5709,4.1102,1.7683,5.477,1.2095,1.3807,3.7556.9182,4.1855,1.3843.6699.7263-.1013,5.5458.4591,7.687.9071,3.4657,2.4233,7.7221,3.5098,11.265.3496,1.14,4.2795.8239,2.4137,3.3515-.0985.1334-2.1596-.3394-2.4745.8438-.8098,3.0431.5795,7.5036-.5493,11.7419-.1812.6805-5.9878,11.7939-6.4042,12.3618-2.7786,3.7901-11.2114,7.3008-12.7348,9.125-.721.8634-1.8011,7.0176-4.293,8.0803-8.7421,3.728-8.733,7.382-15.9462,13.5921-1.9666,1.6931-6.6286,3.4356-8.6716,5.049-1.5327,1.2105-2.9204,7.0749-3.9442.5767l-1.805-.0746c-4.4977,7.171-13.4565,7.6312-20.8728,11.376-1.6438.8301-.2556,3.837-4.7556,1.1097l-.0226,3.7541c-2.3011.7916-5.1242-1.3406-6.7599-1.2625-.7269.0347-.5358,2.1044-1.6334,2.4537-5.1313,1.6332-4.883,1.9269-8.2093,3.4521-6.4366,2.9514-27.0353,4.1788-35.3287,3.4794-2.5598-.2159-7.2951-.7482-7.4439-3.1276l-1.839.0567-.0641,2.3969-2.418-.0002c.4067-3.9562-3.0587-1.8795-5.5792-2.5166-2.8926-.7311-9.7273-3.5244-10.3327-3.6505-6.943-1.4469-13.3217,2.4744-15.4125-8.7843l-4.8124,1.1422c-.465-7.4173-9.1606-8.3422-11.0872-10.2168-.4406-.4287-4.9333-8.7966-6.1746-10.6323-2.7843-4.1181-4.5943-9.4212-8.0625-15.4866-.5879-1.0281-2.2374-1.1759-2.3658-1.9207-.4328-2.5109,1.5899-5.1058,1.3393-7.0963-.1151-.9141-5.734-12.3744-6.1999-16.4588-.6663-5.8423.2441-12.167-.1202-18.0714-3.6059-.7971-2.7299,3.3186-4.9639,5.6492-8.5557,8.9255-20.5383,20.8939-28.3754,28.0615-6.3111,5.772-13.0327,5.8221-17.8711,9.4531-1.8984,1.4247-1.5994,3.955-2.9499,5.2581-2.4147,2.3301-9.6323,3.7226-12.41,5.3722-3.2595,1.9356-7.3468,6.393-10.6911,8.5968-2.0539,1.3535-8.8601,2.9396-9.0117,6.3454l-2.4598-2.4752c.2877,4.3018-5.1361,2.2341-7.8524,3.6934-7.9907,4.2928-10.044,9.545-20.3691,8.9479-.4451-.0257-5.9496,4.8237-6.3888,4.9-3.1942.555-5.6831-3.3876-6.7941,2.3122-2.01-.7543-8.6727-1.4854-10.3108-1.0125-5.2949,1.5285-8.6979,1.0362-12.6954,2.258-2.277.696-1.5418,2.4662-3.6576,2.7346-2.0448.2594-8.0241.3062-9.8686-.1118-1.1563-.2621-.324-3.4472-3.9643-2.5061-.3436.0888-1.1324,4.3414-5.6335,2.5149l1.266-2.4803h-3.7663s1.2662,2.4802,1.2662,2.4802l-3.1294.0345c-.4458-.1283-.4931-2.3145-1.4557-2.5116-11.8674-2.4295-29.4938-7.5762-41.6021-14.481-2.7128-1.547-11.2625-9.0125-13.1403-11.8192-3.9971-5.9744-7.3293-11.1946-11.6175-17.195-.7497-1.0491-6.4974-6.9365-6.5826-7.4253-.2876-1.6499.8329-3.3367.4507-5.3821-.577-3.0882-4.1519-5.4992-4.2069-5.8555-.5197-3.3679-.0538-4.1313-1.1248-8.5782-2.8968-12.0282-1.7367-23.1052-1.8234-36.3726-.0292-4.4596-1.3469-12.9984-.8375-17.1254.1239-1.0041,3.6609-.3825,2.5851-3.9271l-2.5474-2.4815c4.377-1.1351,1.8139-3.9799,2.5319-7.2842.2069-.9521,2.2588-.7674,2.4753-1.7007.7524-3.2443-.9277-5.2176-1.0886-7.3591-.0464-.6178,2.5941-.4255,2.9604-2.8346.3227-2.1223-1.1478-4.694-.6563-6.8929.1057-.473,3.6451-6.2285,3.773-6.6959.3935-1.4385,1.2993-7.255,1.5511-7.6205,1.6204-2.3514,4.9721-.4134,2.119-8.1565,6.6107-3.3702,3.431-3.5858,3.8153-7.5041.0419-.4269,5.3479-3.3164,3.7985-7.0952l2.4787,1.2634c.8477-4.1321,2.1353-10.4411,3.765-14.1357.2492-.5648,1.8038-.7333,2.3946-1.8616,1.3564-2.5905,2.1038-6.8097,4.5365-9.0711,1.4043-1.3054,2.9803.1959,3.0555.0629.5321-.9416-.2856-7.5785,1.2406-10.337,1.1102-2.0066,4.0022-1.1791,5.1352-2.9812,1.4162-2.2526.6323-6.9575,1.3535-7.7329.4452-.4786,2.5882-.0243,4.0892-1.5396.9349-.9439,5.2922-7.1924,6.9578-9.2255,15.8125-19.302,28.1915-36.9175,47.0528-54.2693,2.5904-2.3831,5.2476-5.9347,5.5931-6.2281.7887-.6699,3.1294.257,4.5241-.4981,1.7061-.9237,12.08-11.6853,15.1197-14.2831,8.7527-7.4803,20.6425-17.3052,31.3535-19.201-.8-5.6477,5.0764-3.5512,5.1224-7.4568l2.4606,2.4809c.2824-4.4961,8.9304-5.4185,12.2372-7.1035,1.4151-.7211,1.417-2.2691,2.4825-2.82,2.4224-1.2527,6.9383.0136,6.5699-3.8098l2.4641,2.4774c-.6223-4.1614,3.1553-1.7789,5.381-2.5286.9864-.3323.9239-1.9035,1.2187-2.0245,1.2908-.5301,4.1593.0972,4.6838-4.1757l2.4713,2.4822.7547-2.5106,2.4027,1.0871c1.2883-4.1285,4.2571-1.5996,7.3082-2.2873.7764-.175,1.6166-6.518,3.9126.0012l2.5041-.0521c1.2958-.5504,1.3684-3.4679,2.7528-3.7703,6.1023-1.3332,14.6281-1.5219,20.7073-3.8009,1.1847-.4441,2.8371-6.1013,5.2923.1156l2.4993-.0037c1.384-5.0382,8.0109-1.6584,11.8944-1.7407,2.6945-.0571,3.6821-.2082,6.832-.1576,2.5591.0412,7.0598-1.7341,9.1529-.2784ZM592.0606,526.7038c-6.2834-2.8747-37.122,3.1586-42.8643,5.7538-6.8704,3.105-12.6513,5.2583-19.4371,8.1238-5.1875,2.1906-7.6084,3.3665-12.1621,4.7307-1.134.3397.8131,3.1154-5.6773,3.5153-.9552.0589-.6081,2.2098-1.6195,2.459-1.998.4922-4.8732-.6801-6.7245.5722-1.1671.7895-.9854,3.8132-2.4432,5.0498-1.4797,1.2552-4.5857,1.148-6.5363,1.978-1.7346.7381-4.544,1.5091-4.7834,1.6907-1.5958,1.2101.1533,5.8912-4.936,4.4824l1.2759,2.4819c-6.1935-1.3044-5.9359-1.0258-10.064,3.4585-.7419.8059-.6097,2.9843-1.4541,3.7705-1.8979,1.767-9.1421,3.1593-10.4025,3.9044-5.9299,3.5057-7.6186,11.6888-9.9228,13.9331-1.7276,1.6827-4.4139.718-5.4236,1.4194-1.1706.8132-.7079,4.5798-1.8257,5.7119-.6758.6844-3.2607.6891-4.7909,2.0492-.6867.6103-11.4594,12.8888-11.9838,13.6432-.8848,1.2727-.0642,3.7026-1.598,5.2971-1.15,1.1955-4.1999,1.1792-4.7911,2.0932-.6262.9683.0174,3.2009-.9606,4.662-2.4647,3.6821-7.7796,8.3639-11.3489,13.6546-15.7834,23.3951-30.8213,49.7286-38.3198,76.6456-1.7086,6.1333-.4208,4.8283-.8117,9.0078-.0763.8155-2.3165.6452-2.5571,1.6164-1.8591,7.5055-.8802,17.2392-1.1426,24.7887-.1314,3.781-1.8369,7.7376-1.3461,11.1184.6848,4.718,7.644,11.1227,8.65,16.468l3.8249-.7065c-1.6138,6.3154,4.7603,7.5452,10.0074,7.5075.1014.0776-1.116,1.5149-.8714,2.1987,1.7464,4.8817,21.5269,3.7738,26.3161,4.0083l2.0311,2.5174c-.1317-.9684-.1466-1.9548.9204-2.444,3.1292-1.4344,11.8463-2.5415,15.6774-3.8697,3.0074-1.0426-1.9003-1.3324,5.1682-1.1839.7282.0153,9.6532-7.4618,11.7237-8.648,5.987-3.4301,17.6051-8.1933,22.5231-12.8734,2.3569-2.2429.8596-6.6548,9.016-5.9826l-1.2604-2.4782c7.6499,1.8978,6.5262-9.2236,13.6762-6.2751-.4008-6.2212,3.49-3.8788,5.9603-5.3766,5.7913-3.5114,14.1343-14.4904,20.0316-19.5956,1.1155-.9657,4.2923-1.2996,6.6496-3.0898,7.5748-5.7527,14.1635-17.9649,22.1489-25.726.744-.7231,2.8827-.5977,3.7508-1.4781,1.5656-1.5877,1.5775-6.768,3.0717-8.1951,1.4132-1.3498,4.5296-.7697,5.6912-1.8962,3.1825-3.0863,8.4467-12.265,11.6161-16.1506,3.4789-4.265,10.9096-8.604,12.0378-14.3513.266-1.3549-1.2272-3.5996-.8779-4.1018.6268-.9008,4.3974.972,6.8679-6.9638,2.2261-7.1506,2.9092-5.7505,6.2112-11.9253,2.3456-4.3863,3.2469-10.8205,6.9328-14.282l-2.4221-.6606c-1.7349-2.0537,3.6717-3.8381,4.82-5.9452,4.4205-8.1117,8.3883-16.716,12.7156-25.5059,1.8629-3.784,6.7884-4.2464,3.6491-12.2668l2.4975.6343c-2.1151-5.0123,2.1015-6.8621,2.3994-7.8216,2.3941-7.7115,2.9416-12.5131-.6559-20.1819-.6642-1.4158-10.1177-13.0573-10.846-13.5275-1.7053-1.1008-6.2529-.909-8.6881-1.7081-4.7098-1.5455-11.9696-3.7477-16.3132-5.7349Z" style="fill: #441800;"/>
  <path d="M399.5537,889.2278c17.6616,7.877,24.1444-.1668,39.4824,3.3767.9382.2167.7709,2.2451,1.7048,2.456,4.167.9414,10.8048-.2764,15.6569,1.3897,1.5083.5179,3.6335,4.8693,4.2422,4.8733,1.6339.0108,3.8308-1.7659,5.895-1.3333.6785.1422,8.4115,7.4346,10.5243,8.8243,1.5617,1.0272,4.1235.7543,5.0564,1.5391.3441.2895,2.8355,5.1409,4.4711,7.3539,4.0215,5.4413,8.171,13.1234,11.1851,17.0823,5.7992,7.6168,6.9564,10.7298,9.5478,19.7808,3.291,11.4947,4.9164,35.0717,2.0249,47.8983-2.4151,10.7132-3.8745,21.2434-9.5793,32.9048-.6001,1.2267-12.9478,20.8505-13.9555,21.8157-2.5091,2.4031-10.5167,3.2457-11.0587,10.3371l-4.8335-1.1867c.7315,1.74-4.7274,8.1734-5.3389,8.4152-1.7934.7091-4.0213-.0776-5.0037.395-1.4458.6955-8.6797,6.1622-9.2658,6.249-2.1393.3166-3.5709-1.0576-4.8806-1.1698-.6258-.0537.064,2.1874-2.3232,2.4797-6.4223.7865-18.2936-1.5717-23.6575-.1307-1.0014.269-.6701,4.3693-3.2733,2.4717-.1303-.095.3321-2.1675-.8398-2.4742-2.368-.6198-5.7772.5837-8.3809.0167-.9495-.2068-.7753-2.3793-1.3543-2.3517-1.9091.091-4.3842,1.9643-7.344,1.1601-1.4103-.3832-1.2303-3.1615-2.6545-3.4212-1.6767-.3057-3.9588,1.2831-7.7579-.1702-7.5135-2.8742-14.7699-7.4095-22.6241-10.5746-.4161-.1677-3.8591-5.1537-4.9935-5.9413-11.9632-8.3046-14.46-10.6093-24.599-22.5592-3.1856-3.7545-5.8533-.1793-3.2645-8.6007-6.8107-.2718-6.9028-8.0116-11.1651-11.9834-1.8959-1.7667-4.2166-2.3367-6.2342-3.7609-1.9221-1.3569-5.136-4.4925-7.1994-5.5623-1.6228-.8413-4.1705-.7671-5.0926-1.5191-2.2696-1.8507.5042-6.5756-5.1095-3.6931-.7953-3.8408-14.6087-15.2248-14.9849-16.2712-.4124-1.147,1.0119-2.274.7197-3.2473-.0958-.3191-4.6475-4.4319-4.6569-4.765-.0455-1.6073,1.6713-3.6312,1.2935-5.9448-.1436-.879-2.1187-.7686-2.27-1.3979-1.3741-5.716.47-5.1391-2.7722-11.5168-3.2099-6.3141,1.3614-8.7772,1.2201-14.763-.258-10.9256-.0542-11.815,3.6011-21.6389,1.043-2.8031,3.9852-11.407,5.1058-13.0988,1.2894-1.9469,7.1451-4.019,9.5884-7.1246,1.6266-2.0675.4711-3.5071.619-3.6156.3421-.2508,6.2148-3.4315,7.0951-3.8661,10.9938-5.428,21.5338-6.1797,33.1557-8.808.9982-.2257.3284-2.2722,2.6461-2.5747,4.986-.6507,58.3659,2.789,61.6319,4.2456ZM368.4102,917.9003c-1.9183-1.6789-24.2557.9394-29.0869-.2812-8.1865,2.3099-14.5901,3.7725-21.7204,9.5511-1.2281.9953-10.1431,10.5281-10.261,11.2815-.337,2.1519,1.0649,3.581,1.1555,4.8463.0414.5787-2.1377.3904-2.3612,1.3619-.3526,1.5323-.5492,16.2983-.0575,17.0476.5475.8343,2.2717.8908,2.3373,1.0577.281.7141-1.278,2.1214-.8452,3.3345.2903.8137,11.022,9.6892,12.8202,11.5841,1.3511,1.4238,1.3352,3.6016,2.3007,4.6496,1.2697,1.3783,5.4516.612,7.4144,1.5531,1.5.7192,3.7626,4.7365,5.1838,5.7657,12.5232,9.0693,15.1572,14.9072,24.4481,27.4597,1.1794,1.5934,1.1365,4.3575,2.5932,6.1536,2.2882,2.8213,6.2974,2.3964,7.264,3.3663,1.1512,1.1553.7615,7.1353,4.684,7.9237.7794.1566,2.5432-1.0242,3.0016-.6887.5572.4077.2406,3.7926,2.2009,5.0752,4.4125,2.887,13.916,5.7802,18.7958,7.847,6.6481,2.8156,10.9686,1.6038,18.2566,3.3318,1.0485.2486.389,2.5394,2.6856,2.6102,4.25.131,16.229-.4221,16.9404-5.1222l1.8437,2.5232c3.7434,1.1898,3.0901-2.4035,4.3496-3.1477,1.782-1.0529,9.5441-3.0848,12.2116-4.7083,1.2492-.7603,13.589-17.2996,14.6468-19.5786.3739-.8055-.705-2.3556-.2611-3.5181.7857-2.0575,7.0876-1.8722,3.4511-7.8462l2.4985.6343c-1.5017-6.5814,3.4634-7.2501,3.7598-13.8025.1821-4.0245-1.4273-7.2043-1.3517-10.0162.1038-3.8586,3.9268-4.0996.0351-8.6749l2.5954-2.4759c-2.9318-3.2552-1.8156-6.6926-2.5895-9.782-.2575-1.0278-2.2476-.8215-2.4578-1.7313-.669-2.8948,1.1068-5.7524.3121-8.7938-.4095-1.5675-11.7249-17.6572-12.8801-18.4072-1.5075-.9789-3.733-.34-4.6711-.9387-1.1077-.7069-1.2671-4.6038-1.5263-4.7764-.654-.4355-2.6812,1.3504-3.5243,1.0058-6.292-2.5724-11.7573-7.3191-20.2259-7.9875-4.0307-.3181-10.4238,3.4206-11.872-1.7662-2.8507-.6246-1.2844,2.1385-2.6725,2.5289-2.7592.7758-5.4884.3862-6.0746-2.5389l-3.1284.0336,1.2666,2.4802c-5.1736,2.3523-7.8824-2.4248-8.3592-2.5079-6.324-1.1023-11.3413-1.492-18.5125-2.4382-3.6428-.4807-9.1326-2.3536-12.4953-3.8188l-1.8768,2.512c.0307-.6411.1635-1.8169-.2414-2.1713Z" style="fill: #441800;"/>
  <path d="M417.0941,947.9486c.3536.2106.2632,2.1345,1.0012,2.1751,7.7947-3.5915,7.846.0662,12.2997,4.4661.7624.7532,2.8826.6034,3.8267,1.7497,1.9274,2.3402,3.6457,10.9714,8.162,11.2675l-2.5087,1.8568,2.5446,1.4277-.0842,23.2877c-5.0329,3.2168-5.8038,9.3381-10.55,13.4358-1.685,1.4548-4.9274,1.4028-6.4332,4.7732-11.2015-.2304-26.6518,2.9885-33.5963-7.2931l-1.8511,2.4843c.6684-3.8347-4.9064-2.4736-6.0323-3.996-1.2235-1.6544-1.7892-11.2624-6.4782-11.0103l2.5221-1.8468c1.1608-3.3881-2.4123-2.9946-2.5629-3.9586-.4575-2.9301,1.2954-5.3371,1.1835-7.3938-.1523-2.7988-5.3485-4.8294-.009-6.0591l-1.08-10.6668c8.157,1.1656,6.663-3.7665,8.9608-6.0208,1.2108-1.1879,6.9709-2.2706,9.4308-3.7383,1.9929-1.1892,2.7013-3.8034,3.6859-4.0689.8492-.2289,16.8132-1.3215,17.5688-.8715Z" style="fill: #441800;"/>
</svg>