<svg xmlns="http://www.w3.org/2000/svg" version="1.1" xmlns:xlink="http://www.w3.org/1999/xlink" width="1200" height="1200"><svg id="SvgjsSvg1018" data-name="レイヤー 1" xmlns="http://www.w3.org/2000/svg" width="1200" height="1200" viewBox="0 0 1200 1200">
  <rect x="0" y="0" width="1200" height="1200" rx="599.9994" ry="599.9994" style="fill: #fefbef;"></rect>
  <g>
    <path d="M859.5271,233.5781c8.5086,1.2583,15.9076.7302,23.7106,4.1994.5635.2505,6.4335,6.3791,6.5509,7.4573l4.8364-.6429,2.7318,5.6803,3.1254-.7062c1.2215,5.2758,9.2797,8.2537,11.574,11.9457.9162,1.4744.2747,3.2363.9282,4.507,1.055,2.0512,5.5168,7.9717,5.9898,9.268,1.0161,2.7847-.3854,8.1029,2.5867,9.0084l.0039,1.6704c-4.2785,1.7034-.0118,2.7345.0795,4.1548.1124,1.7474-.5273,3.3521-.8487,5.0165l2.4218,1.315.0212,1.2413c-4.2537,2.3802-2.6012,8.9031-3.3951,12.4012-.132.5814-1.3958.5937-1.5738,1.2442-2.0151,7.3631-1.7392,10.0931-6.2484,15.7574-2.1293,2.6748-5.0128,4.9067-4.7303,8.7355l-1.5949-.7876c-1.904,1.5292-.7179,6.3657-.9542,6.6158-.1751.1854-4.2052,1.3108-4.7267,1.9165-.4262.4949-2.6513,5.5955-1.9258,6.4929-5.2505-1.1032-3.0095,2.5812-4.4315,4.8073-.3825.5987-2.4788,1.2337-3.5235,2.7655-4.0847,5.9889-8.7795,9.8996-13.0248,15.4597-2.6943,3.5288-4.5559,8.5735-6.6546,11.575-1.4886,2.1289-8.6528,8.4336-9.0361,9.2027-.4971.9976.0753,2.5592-.3375,3.0374-.2891.335-1.8942-.2289-2.4744.5758-.7686,1.066-.4828,4.1115-.8522,4.4511-.3978.3656-2.2944-.1517-3.2642.4848-.3047.2-2.3426,4.3833-3.3624,5.6399-1.6318,2.0106-4.9928,3.5346-5.6248,4.2505-.9336,1.0574-3.4413,7.6365-3.7682,7.9652-.6047.6082-3.0368.3807-4.0384,1.4197-.8017.8317-4.708,9.5172-6.8779,10.3211-.859.3182-1.8366-.9509-2.6929.1511-.9733,1.2525-1.7937,4.4317-3.0129,6.087-.9193,1.2481-3.2956,2.4994-3.9621,3.7328-.6889,1.2748-.5963,3.5132-1.2147,4.2605-.5323.6433-2.2806.6208-3.1341,1.4636-1.6456,1.6251-8.5812,12.403-10.0176,13.386-1.1448.7834-3.1224.6238-4.0483,1.4814-1.3033,1.2071-2.5395,6.123-3.5086,7.5857-.5922.8938-1.9948.9779-2.5595,1.8082-1.9221,2.8261-4.2633,10.0538-8.3723,8.8378l.8352,4.1856c-4.7643-.6937-4.5468,2.693-6.4372,5.6852-4.7426,7.5069-8.9415,13.9367-13.9557,21.7144-.6907,1.0713-5.768,5.5105-4.748,6.9753l1.6625-.8526c1.0139,3.5645-1.5477,3.0305-2.5207,5.4359-1.7076,4.221,1.9272,5.749-3.3364,8.405l1.7717,1.6325c.5995,2.0809-1.8555,4.4744-1.8195,5.8857.0083.3248,2.5745.1636,1.7495,3.2883-.2429.9198-2.0652-.0462-1.6987,1.3312l1.751.507c-2.1964,4.3051.8266,3.7297,1.3548,4.6944.6177,1.128.7345,6.2578,1.1022,7.6372.1909.716,2.9922.6026.8085,4.7622l3.3482.8754-.8301,4.158,3.3264.0354c-1.73,3.5336,3.9317,6.398,4.0507,6.8045,1.0425,3.5602,2.5752,9.0619,4.5935,13.4865,1.1031,2.4183,3.374,3.569,3.7713,4.5574.8691,2.162.6726,4.1959,2.1346,7.1395.4005.8063,3.8764,4.3153,3.9299,4.6136.3009,1.6774-1.065,3.4048-.8852,4.734.0681.5035,1.3004.4989,1.4297.8044.6971,1.6477,1.592,4.9245,2.4244,6.405,2.177,3.872,1.349,2.7637,2.616,7.4309,1.3851,5.1019,5.3965,11.9327,6.8031,16.741.3838,1.312-.5917,2.825-.2534,3.5847.4823,1.0833,2.7156,1.2295,2.9551,2.2006.3986,1.6161-.3014,3.9864-.086,5.7602.1829,1.5062,1.4794,1.0351,1.7056,1.7962,1.1338,3.8135.1333,9.8104.8939,13.0739.1605.6887,1.727.2972,1.761,1.7976.036,1.5915-1.0015,3.2251-.9594,4.1624.0151.3362,1.13,3.018,1.7094,5.7788.1381.658,1.5413.2118,1.7361,1.7973.4287,3.4888-1.7091,3.0382-1.6907,3.3261.2207,3.4654,3.0487,7.1907,2.4327,11.7419-.1425,1.0524-1.3386,2.0202-1.3493,2.5659-.0389,1.9924,4.0025,2.6281,3.0683,5.7588l-1.67.5383-.0068,1.648,1.5545.3721c-2.3057,3.3249,1.5222,3.3251,1.8005,4.4124.8902,3.4771-.7398,8.9-.7375,12.3495.0024,3.545,1.2426,7.3982.7788,11.0098-.209,1.6277-1.6595,1.2334-1.7555,1.6216-.4241,1.7153,2.4145,2.2692,1.7603,6.7658-.2692,1.8501-1.5447,1.0108-1.7154,1.2143-1.5543,1.8525,2.6965,1.1981,1.6412,3.3156-5.2344,1.1116-.2098,3.1498-.0202,3.9564,1.2111,5.1527-2.1047,4.7502-2.257,5.6248-.171.9818.9528,4.5096.6496,6.8235-.7124,5.4365-3.4223,13.194-4.1637,18.4177-.9002,6.3425-.0089,15.0035-2.8399,20.2988-.1366.2556-1.3845.2009-1.459.7381-.2687,1.9371,1.7074,6.5883.916,9.8136-.2988,1.2179-2.6442.7295-3.229,1.5578-.4584.6492-.2354,2.6667-.7307,3.843-4.3104,10.2362-6.3881,22.5176-10.5654,32.6505-6.7373,16.3425-18.8032,35.4255-29.0225,51.1805-4.2261,6.5152-11.973,20.6533-17.6742,24.777-.4491.3249-1.5711-.3263-1.6152-.2574-2.3025,3.5893-2.9207,7.8991-7.8584,11.3909-1.304.9221-3.611.973-3.83,1.2344-.4928.5884.2639,4.1369-1.1445,5.5735-.5649.5763-1.9879.5047-2.5076.9946-6.3461,5.9814-12.9479,11.6858-19.0588,17.2187-1.1786,1.0671-1.1361,2.6738-2.3206,3.8178-.8847.8545-5.7997,3.7837-7.4495,5.295-.7839.7181-3.3974,4.125-3.6669,4.2579-1.4795.7299-3.5195.1464-4.057.5859-.2442.1997-1.9166,4.8154-2.6537,5.724-1.1662.578-.683-2.6096-1.6541-1.6637-.3007.2929-2.1337,3.695-2.7587,3.9788-4.1753,1.8955-9.6202,3.932-13.9639,6.5424-1.8929,1.1376-6.5981,7.0942-8.2597,7.8779-2.1408,1.0096-3.9525,1.2003-6.5932,2.4588-2.3716,1.1303-6.1663,2.3476-9.2308,3.7439-1.7536.799-1.6599,5.1211-6.1301,2.2049l-.8577,3.3528-1.2426-1.667c-1.0004.4634-4.8229,4.208-5.1557,4.2286-1.142.0708-2.2363-.8771-3.1519-.8849-.7844-.0067-11.9264,6.545-12.3169,7.4593-2.683-1.4522-3.269,2.3018-7.4519.9361l1.6674,1.6597c-4.1247-1.9522-4.2184.727-4.7429.8456-2.654.6003-4.7441,1.6359-5.0347,1.6962-3.0503.6335-3.0466-1.7817-7.1796.8565-2.1199,1.3531-3.7628,1.6695-6.9753,2.442-4.6643,1.1217-5.9437,1.1637-10.8892.9938-.2956-.0102-4.0162,3.1478-4.3047,3.2125-1.4963.3357-3.2242-.2921-4.7222.0308-.6065.1307-.5091,1.4919-1.1419,1.6447-3.9953.9646-8.9406-1.7245-12.4506.8575l-.8022-1.6964c-2.2185-.9587-3.07,2.9302-4.4083,3.3097-3.8533,1.0928-7.1599-.06-10.6153.0581-5.8664.2006-13.961,1.5413-19.4191,1.5933-6.797.0648-24.2683.0092-29.2598-2.4247-1.2601,4.1281-5.9252.4906-7.5301.4152-3.2194-.1512-7.4889.9415-10.9586.4878-1.5509-.2028-1.075-1.5544-1.781-1.7207-7.8473-1.8484-13.1517-1.5685-20.8223-3.9504-7.1632-2.2244-14.2361-2.7871-21.1891-5.1863-3.9158-1.3512-7.618-1.6774-11.2833-2.642-.7293-.1919-.5664-1.5254-1.1707-1.6665-1.8707-.4368-3.5124.8089-5.3038.8447l.8509-1.6632c-3.047,2.079-10.7956-5.8551-11.4575-5.9074-2.9872-.2363-1.0965.6076-3.8911-.5209-4.0033-1.6166-7.2587-2.0636-11.6415-3.7172-1.0164-.3835-5.0972-3.4443-6.3691-4.0132-8.5301-3.8152-15.3486-7.2616-22.2624-11.521-6.63-4.0845-14.2846-8.6861-19.5704-12.0567-3.3357-2.127-3.5075-4.0271-4.4627-4.596-8.9282-5.3174-22.1911-14.7514-29.3601-22.7823-.6398-.7167-.6982-2.716-2.0097-3.724-1.4196-1.0912-2.8041.1706-2.9204.0818-.2361-.1802-.2741-2.3252-1.0827-3.133-.7434-.7427-2.5107-.5808-3.5302-1.9077-1.018-1.3251-1.0956-3.9964-2.4033-5.5673-1.56-1.874-6.8476-4.271-8.6551-6.4225-1.7934-2.1348-1.5427-4.5548-2.1477-5.3963-.479-.6663-2.3241-.4861-2.9963-1.1886-.9486-.9915-1.3388-4.1713-4.1616-6.5702-4.7295-4.0194-8.6769-12.1587-12.7761-18.0211-.595-.851-1.956-.9066-2.5672-1.8014-1.2396-1.8148-4.0881-8.7988-5.1768-10.1055-.7006-.8409-3.0598-.8925-3.1687-1.0522-.2909-.4264.8844-1.802.6912-2.3775-.0574-.1709-2.7887-1.5713-2.9777-2.0341-1.4959-3.6635-10.1513-19.2784-10.2972-20.4454-.3882-3.1065,1.9531-5.5386-4.1729-6.1511,1.4763-3.2573.1025-6.0431-1.3614-9.0987-2.6233-5.4754-2.6771-4.7899-4.5686-11.1975-.3098-1.0495-3.292-5.8172-3.3208-6.2154-.1551-2.1489.907-4.0661-.829-7.005l-1.6416.8443c2.1205-4.1969-.6852-4.146-.8356-4.7584-.4598-1.8723.4013-4.413-.0362-6.3906-.6496-2.936-5.8047-12.6966-6.6582-16.2537-.5241-2.1842.3236-5.435-.0262-7.8088l-1.6629.8491v-3.3636s1.6627.8496,1.6627.8496c1.3256-2.9319-2.2891-5.8705-2.476-6.4928-.2672-.8894.2001-2.1082-.0228-2.9993-.2149-.859-1.5588-.5013-1.6373-.6077-1.2826-1.7373,1.4525-1.5045,1.6357-2.1811,1.2259-4.5259-2.9867-4.1916-.7784-8.1829l-1.7858-.9305c2.98-5.1825.2056-4.0276-.0308-5.7867-.6439-4.7917-1.1889-50.1205.3032-52.2688.1808-.2604.9928-.1736,1.4054-.2072l.052-1.2216c-4.4659-1.9031-.0449-4.0508.0088-4.35.3689-2.0544-.156-8.0422-.0272-10.7452.2775-5.8275-.2923-2.4719-.8203-4.3267-1.0476-3.6802,1.5201-3.6791,1.6465-4.2071.7859-3.2816.1124-7.2637,1.203-11.9473,1.7242-7.4049,3.4849-15.7314,5.7672-23.6638,1.3221-4.5949,1.1622-8.9943,2.2438-13.5225.2062-.8634,2.0521-.8104,2.4197-1.925.75-2.274.7917-6.2359.9237-8.1488.0172-.2494,3.0368-2.9855,3.29-3.7639,1.0406-3.1983,1.3703-5.2982,2.5115-8.3857,2.2053-5.9659,3.6165-8.8866,5.1751-14.7629,1.2497-4.7114,6.6503-11.9867,8.9483-17.0294.8194-1.7981.5547-3.9823,1.3682-5.7941.3515-.7828,3.3315-2.2226,3.7259-3.366,1.9999-5.7979,2.2182-3.0294,4.242-6.6539.7907-1.4161,2.6468-7.9626,3.613-8.5567.7941-.4883,2.5537.2022,3.0945-.2196.3824-.2982.4024-3.2896.9523-4.3016.5565-1.0242,2.0942-1.0912,2.8609-2.3624,1.4829-2.4586,3.078-7.2623,4.3092-9.1177.939-1.4149,6.3957-5.5031,6.6842-5.8982.5446-.746.0932-2.3043.6414-3.1319.8439-1.2739,4.1662-3.1715,5.2167-4.3847,4.0901-4.7236,7.1117-8.7496,10.9451-12.5537,1.6564-1.6437,4.0914-1.9336,3.7018-5.1077l2.499.8574c-.5925-2.5914,2.309-3.2553,2.3919-3.4711.287-.7469-1.8995-1.7343,1.6537-4.0093,5.5887-3.5783,8.5754-7.0635,14.1897-10.3102.5781-.3343,5.9903-6.9244,9.187-9.0353,1.4836-.9796,8.9769-4.1741,9.5012-4.6258,1.1046-.9515,1.8356-5.447,4.4019-6.8428,4.4952-2.4449,9.3488-4.7421,13.3008-7.9016.593-.4741.9013-.7535.7107-1.5762,1.194-.56.6647,2.5986,1.6513,1.6607.192-.1825,2.4264-3.9499,2.6556-4.0247.5662-.1848,1.3636.8405,2.1715.5034,1.1764-.4908,5.6634-5.081,7.5353-5.5792,1.3597-.3619,2.8186.7488,3.6186.3035.6554-.3649,1.9093-3.6275,4.9865-2.9412l-.8468-1.6581c5.2846.4521,7.8673-3.1003,12.4296-4.7637,5.1885-1.8918,10.2008-3.6929,13.802-5.0009,5.2299-1.8995,11.2095-2.6965,15.3105-4.4282,1.6829-.7106,3.2542-2.4995,3.4625-2.5531,3.2043-.8245,4.0554,4.6053,6.0635-.454,5.5458-1.362,11.8906-3.2717,17.9291-4.6084,2.7768-.6147,8.2801-1.5991,11.702-2.5435.6979-.1926.566-1.4653,1.1797-1.6176,2.7833-.6908,5.595,1.0852,7.2742.8583.5583-.0754.3946-1.5124,1.1189-1.7025,1.8522-.4862,3.299,1.092,4.0234-1.7008l1.2095.0778c.6944,4.2476,2.4557.0344,3.7604-.1305,3.0179-.3814,6.6647.6702,9.2803.4861.7406-.0521,1.7703-1.2055,3.298-1.3014,3.0521-.1917,6.1693.2557,9.2286-.017l.8729,2.5694c3.5528-4.2273,12.2136-2.603,17.4846-2.4565l.5501-1.7231,2.0229,1.7429c3.2261-.5894,7.8484.5893,10.8027-.0918.5525-.1274.5249-2.5815,3.4199-1.687l.5167,1.6973,1.6529-1.6613c-.3944,2.7944,2.5496,1.3225,4.5943,1.7192,1.8803.3647,3.6515.5001,4.929.7498.8164.1596.461,1.5755.5809,1.6673,1.7227,1.3189,1.5085-1.464,2.1814-1.6414.9301-.2452,4.5966-.2046,5.5916.032.6222.1479.4998,1.4757,1.1536,1.6338,2.2696.5489,7.6448-.842,7.8146,2.5199l1.6592.0112.4218-1.6802.4271,1.6852,1.6566-1.6682c.0477,2.9855,8.2363,1.5955,11.133,2.5069,1.0318.3247.9551,1.9181,1.8604,2.5022l2.9257-2.4911c2.4231,5.4129,11.5439,3.1781,16.1977,4.1937,2.0114.4389,12.4519,6.1619,14.6024,6.6703,3.1746.7504,3.8093,1.7034,4.0581,1.7152,1.1701.0556,2.7674-1.2501,4.799-.8616.593.1134.6279,1.3781,1.2222,1.6253,1.7767.7389,4.6362.1146,4.4078,2.5621l1.6525-1.6618,1.3629,3.385c1.7759.101,3.1599.4004,2.851-1.706l.8145-.0018c-.1123,1.2758,1.002,2.1212,2.0589,2.6155,3.8142,1.7841,7.2899,3.152,11.6526,4.0808.6583.1401.5169,1.6181.9073,1.5917,5.7772-.3915,2.8277.6871,5.025.9887,2.2537.3094,6.3495.6754,6.7735-1.7497,1.7201-.3666.7266,2.8525,4.9055,1.7006l1.3623-1.6834c-.2992,2.0899,1.0319,1.8566,2.8339,1.6697l1.0295-1.6823,2.0091.8508c.3112-4.7582,1.9908-2.6451,4.4874-3.4908,5.342-1.8097,15.5387-13.5367,20.7093-17.8639,4.323-3.6179,2.1236-2.5225,4.3523-5.2654.6323-.7782,3.3817-1.08,4.8413-3.1182,1.446-2.0192,3.2247-6.097,4.0686-7.8354,1.5775-3.2496.7501-5.7283.9336-5.9894.0952-.1354,2.147-.2831,3.1174-1.1151,1.3828-1.1855,2.2465-4.2277,3.3073-5.5147,1.0129-1.2289,3.7997-2.9894,4.4941-4.0698,1.3632-2.121,2.7611-8.273,4.1187-9.9149.9757-1.18,2.6409-.4227,3.4321-1.5231,1.1347-1.5779,2.9927-8.0591,4.385-10.361.3783-.6255,1.8381-.6899,2.2909-1.4746l-1.6674-1.2432c2.1728-.7589,5.7061-4.9798,6.7657-7.0673,4.3953-8.6591,9.9804-17.2453,15.2552-25.8374.6832-1.1129.6544-3.086,1.4015-4.2275.8668-1.3244,4.8558-3.101,5.9314-4.5627,1.7602-2.3921,4.267-9.9756,5.8924-12.983,1.3259-2.4532,3.4782-7.2132,4.4683-8.8186.8282-1.3429,5.405-4.6129,6.3618-6.6729,3.3768-7.2702,7.4979-14.2508,12.5845-21.3825,6.5748-9.2183,14.0191-17.9485,21.7529-26.8386,3.8179-4.3887,10.355-9.8007,16.3462-14.0893,1.4299-1.0236,6.5312-1.2364,4.6395-4.1341,1.7331-.4937,3.9342,1.0606,5.3303.8619.512-.0729.5011-1.3003.8034-1.4296,4.6291-1.979,10.3096-2.1713,16.0089-2.8531l1.3293-.7778h3.3524ZM859.1758,280.0468c-1.3271-.6866-4.2626-2.7998-5.1033-2.8955-4.3334-.4932-7.3037,4.6776-9.9134,7.2754-4.8158,4.7938-5.7948,8.0746-9.7524,13.056-1.8346,2.3092-6.2177,4.2419-7.6588,7.7138-.5545,1.3359.211,2.7031.0664,2.893-.2659.3493-2.2941.3092-3.1268,1.1219-2.036,1.987-3.6552,7.6367-4.8935,9.8003-.4577.7998-3.4239,2.6509-4.2034,3.7118-2.1607,2.9407-6.7519,10.6663-8.2313,14.0097-1.1871,2.6826.8781,4.7283-3.8243,4.969l.8323,4.1887-1.6643-.8603-.0097,2.5357-3.3419-.8412c1.4882,5.1939-.2868,3.3611-1.427,5.6813-.7277,1.4809-3.8278,9.4791-4.5545,10.1006-.6043.5168-2.26-.1245-3.1555.2119-.7384,1.171-.161,4.2529-.5733,5.0019-.6033,1.0961-2.1304,1.2068-2.6242,1.8705-.4576.615-2.9522,6.8839-3.6535,8.3303-.492,1.0148-2.6442,1.2523-1.7193,4.7882l-2.2993.1296c.6399,2.9366-1.2277,2.9957-1.7316,3.9293-3.9684,7.3522-10.4984,20.2151-15.4194,27.5763-1.2026,1.799-5.5809,2.8376-3.919,6.1248-4.22-2.1846-3.8781,3.9946-5.324,6.4184-1.2766,2.1401-4.2609,4.8676-5.8104,8.0337-.6049,1.236-.8357,3.8868-1.6193,4.641-.9636.9275-3.4184.6484-3.8602,1.1801-.3272.3939-.1318,2.3133-.9301,3.6605-1.6197,2.7333-6.287,3.4181-4.2378,7.9171l-3.2495.0986c-.0967,3.564-3.4295,3.7863-1.7844,6.6041-3.7005-1.3702-4.7196,3.323-6.7526,4.5645-1.0522.6425-2.5725.2399-3.1429.6226-.5954.3995-.5685,2.5208-1.179,3.4615-2.4822,3.8253-9.2987,5.2789-11.2482,8.3999-.7342,1.1754-.9008,2.5893-1.1533,3.9157-4.1992-1.8346-2.6851.1506-4.3569,1.1224-2.2338,1.2985-4.425,2.336-6.5077,3.9297l.5413,1.7254,4.8873,4.9477,1.2429-1.6676c1.8285,3.7574,6.1175,6.4582,8.994,9.4102,1.1762,1.207,5.8944,5.539,7.2684,7.3967,1.7063,2.3069,1.4959,5.6404,5.1372,6.6413,2.279.6265.8173-5.8264,2.1532-6.8688,2.8047-3.7233,4.8777-9.2781,6.5544-13.0922,2.6791-6.0941,12.669-23.122,17.3684-27.6875,4.5515-4.4219,7.2509-8.2183,10.8389-13.4724,5.506-8.0628,13.9257-14.5899,18.9062-23.6703.5274-.9615,2.155-.4072.7286-2.3514l3.2534-.104c.4502-3.7686,3.3468-5.4201,5.3357-8.5199.6212-.9682.3313-2.5902.9381-3.6892.6203-1.1233,3.8758-2.7534,4.7559-4.0008.9929-1.4072,1.0946-3.6884,1.8348-4.4964,1.2585-1.3739,2.2343.7064,6.2123-5.1012,2.9244-4.2695,6.3748-8.7337,9.5142-13.2593,1.2258-1.767.7416-5.7001,5.0212-4.4188-1.274-6.9883,3.2043-5.3224,4.8594-6.9461.4886-.4794,2.3605-5.199,2.7727-5.7859,6.6854-9.5177,14.3559-17.3954,20.8679-27.0895,2.3033-3.4287,7.2303-7.5122,9.1441-11.143.5563-1.0554.1096-3.1024,1.1189-4.1709.3239-.3429,4.8349-3.05,5.6779-2.7019-2.5854-5.8805-.0361-4.1822,1.8869-5.8164,3.5305-3.0001,4.0363-6.6956,5.898-9.8473.2593-.439,1.9571-.7937,2.2411-2.3877l-.091-1.1294-1.5512-.0972c-.0107-1.1385,1.6221-1.1268,2.8874-2.5468,2.9095-3.2651.7986-3.8113,1.2325-6.085.2416-1.2659,3.9602-.4212,1.7023-4.1588-1.7267-2.8582-.8941-1.7772-1.8606-5.0052-1.0471-3.4967-5.0576-4.9142-7.9203-5.9575-.3007-.1096-.2398-1.2807-.6088-1.2688-1.339.043-2.8996,1.025-5.1112.8022-1.372-.1382-1.214-1.1915-1.5755-1.3786ZM506.0331,461.2553c-3.4691-1.6095-5.4685-.079-9.8337.2792-5.4347.4459-6.5491.6283-11.0428,1.6668-4.0307.9315-12.2585-.0699-16.4517.8723-.6649.1494-.2303,1.5297-1.7765,1.7286-2.5147.3235-4.3149-.7413-5.9764-.8096-.3967-.0163-.2654,1.423-.9165,1.5729-2.7335.6291-6.9861-.6136-9.7513.0343-2.1076.4938-4.2751,1.7417-8.3671,2.5014-.2455.0456-3.2225,3.077-3.7898,3.2529-2.2869.7088-6.0976.3447-7.9311.9248-.9651.3053-.8532,1.7301-1.7996,2.1959-2.5733,1.2666-8.0018-1.7168-9.285,2.8165-3.9271-3.4031-3.3713-.4873-4.4073-.0402-3.2038,1.3827-17.2883,8.3394-18.3404,8.4038-4.4817.2743-3.3766,2.0175-5.6867,3.0557-1.2147.5459-4.4351-.1798-6.1428.5704-.4366.1918-7.4009,4.7467-7.8313,5.1264-.996.8786-1.5577,2.8806-1.7024,2.9721-.5042.3185-1.7171-.8194-2.2874-.6403-.3939.1238-4.6873,5.1209-5.3377,5.5812-.2328.1648-3.3212-.3769-5.395,1.2589-1.0578.8344-3.3856,5.1841-3.8166,5.455-.4851.3049-1.7051-.608-2.3773-.2988-1.1487.5285-1.3173,2.4914-1.8112,2.8187-.4478.2968-1.5648-.7456-2.7879.0206-1.9129,1.1982-2.3508,4.3044-3.1106,4.9138-4.1018,3.2899-3.8268,1.5362-8.1242,6.509-2.443,2.8269-3.4165,1.93-5.0816,2.6314-2.8536,1.202-9.298,12.2244-13.1928,14.6045-.9078.5547-2.7604-.1447-3.176.6837.6567,5.4319-3.2235,4.2403-5.7716,6.8231-4.5829,4.6455-6.0456,8.884-9.0966,13.134-2.5686,3.578-6.1563,3.5522-8.7648,9.2683-1.3115,2.8739.2293,5.9319-4.3992,6.1029l.6588,1.4789c-5.9736,2.2881-7.0694,13.6171-9.3071,16.67-.6354.8669-6.5329,6.1661-6.8636,6.9062-1.1626,2.6024-2.3788,9.2888-4.0091,13.2509-.6381,1.5508-5.7105,4.3747-3.2789,8.4147-4.9759,1.9911-1.5074,3.7968-2.329,7.1282-.1841.7464-2.2744,1.0459-3.2137,2.8481-1.2026,2.3075-.5324,4.428-1.0549,6.3392-1.1642,4.2583-5.1546,11.3162-6.5827,15.5161-1.195,3.5143-1.5379,6.6106-.9205,10.2488l-1.6626-.8492c1.0504,3.7938-1.1058,6.6844-1.609,9.7176-1.0062,6.0651-1.5337,11.1707-2.617,16.6539-1.4134,7.1546.0865,11.0915-.7433,17.6908-.2015,1.6029-1.615.8049-1.8092,2.4008-1.1878,9.7637-1.4632,27.3352.1435,36.866.3302,1.9589,2.2421,3.0818,1.6102,5.8083-.1449.6253-1.6206.643-1.7037.9641-.6313,2.4406,1.5133,1.89,1.6823,2.6552.7646,3.4615.2812,10.2528.7813,14.1656.1989,1.5564,1.5758,1.097,1.728,1.7715,1.3942,6.1767,1.0926,14.476,2.5388,20.6577.1479.6321,1.6346.5312,1.7074,1.0881.191,1.4617-1.3636,3.5638-.8897,5.6059.0777.335,3.29,4.7776,3.2707,5.121-.2371,4.2348-.0969,4.1723.9423,8.2804.1874.7409,1.6027.5485,1.5738.9409-.641,8.7072,1.9555,8.4638,5.0636,14.538,2.3306,4.5546,3.2402,10.9641,5.8769,15.7354,1.0116,1.8305,2.9073,2.6273,3.3767,3.5436,2.2957,4.4817,3.2054,10.8279,6.7257,16.4961,1.564,2.5183,3.9407,2.9424,3.4699,6.2369l2.2789.1491c-.6606,3.3251,1.2606,4.0207,2.1778,5.8622,2.2238,4.4647,6.2675,9.3291,9.6228,13.5719,1.8462,2.3345,1.6971,2.7456,2.8679,4.532,1.3887,2.1191,3.5346,1.3619,3.1939,6.003,5.4745-1.1967,5.384,6.814,7.3577,8.146.5508.3718,1.7777-.6479,2.3475-.3169,2.336,1.3572,2.171,4.2285,3.1383,5.6467,2.585,3.79,9.5965,6.9534,10.4978,11.8058l3.2299-.7851c.4171,2.7344,2.798,3.1794,4.3231,4.7499.4631.4769.5456,1.9518,1.2396,2.7098,1.1149,1.2178,2.8435,1.1864,3.5585,1.8989.8214.8185.9125,3.0739,1.051,3.1668.2233.1498,2.5585-1.1264,4.6942,1.0984,1.039,1.0824,1.4412,3.0757,2.2449,3.6744,1.7631,1.3134,4.9343.0385,4.7916,4.4441,2.9696-1.9245,2.1457.2938,3.1467.7822,5.3175,2.5947,4.16,4.3947,6.0915,5.5408.8038.477,1.8709-.4146,2.3141-.2098.1462.0676.1396,1.1271,1.311,1.5699,1.2726.4811,3.8781.3505,4.5596.8598.5553.4149.4687,1.9078,1.0011,2.5587,2.7125,3.3162,5.2419,2.8756,8.664,4.122,1.5795.5753,3.9256,5.4924,6.7299,3.1561,3.7951,4.3123,9.4421,6.1705,14.3051,8.5882,1.3629.6776,3.7528-.9478,3.8437,2.3508l1.6523-1.6621c.2261,2.2052,5.694,3.3726,7.7015,4.2756,4.2665,1.9192,11.3193,5.3076,15.5875,6.5403,2.5759.744,8.8166-.1332,8.5838,2.578l1.6517-1.6603c-.0916,3.7526,7.5917.2879,7.5682,4.1744l1.6489-1.6592c1.6749,4.4847,5.2045,2.3864,7.8089,2.784,5.0411.7696,7.1963,2.4347,13.5287,3.1401,7.3447.8182,14.0312,1.4821,20.9712,2.4786,5.3635.7701,4.0359-.2092,7.5924-.1166,1.799.0469,6.3321,1.6504,8.3355,1.8407,4.9103.4666,10.6019-.9751,15.1264-1.3976,1.3445-.1255,3.2442,1.5955,4.9106,1.3617.5463-.0767.4361-1.5435,1.09-1.7062,3.6242-.9019,9.6035,1.2432,13.0505-.0675,6.7376-2.5619,12.0513-.8265,19.3185-2.4861.5845-.1335.5581-1.3478,1.2349-1.5815,12.6647-4.3724,24.8376-6.3479,37.259-10.1974.655-.203.6115-1.4228,1.2436-1.5715,1.9551-.4598,5.1572.2603,7.1651-.8603,1.4018-.7823.9542-2.8018,1.5951-3.2285,1.1944-.7953,7.5131-.5801,9.3427-1.0067.9606-.224,3.8348-3.8268,4.1049-3.982.8721-.5008,2.425.06,3.4687-.2962,1.2647-.4316,1.1451-2.0245,1.5244-2.2988.5471-.3956,2.0489.9775,3.2216.3939,1.1425-.5686,1.4149-2.6501,1.833-2.9018.4761-.2867.6345.3854,3.4308-1.5155,5.5607-3.7801,12.8167-7.2046,18.9509-10.8584,1.2918-.7695.9909-3.0066,5.0326-2.0522-.1789-5.6852,3.4269-3.5167,5.7018-5.1968.911-.6728,1.2553-3.0358,2.1604-3.7026,1.6175-1.1916,5.26-1.2513,7.8797-3.8456.6569-.6506.6777-2.0089,1.2212-2.5574,1.6859-1.7014,4.242-3.2339,4.9163-5.5664l1.2421,1.6671c1.4934-4.3135,4.3694-4.661,6.663-6.7453,11.4985-10.4493,27.1663-28.6087,34.8839-42.044,1.2701-2.211,5.4906-3.374,4.9905-7.357l1.6382.841c-.4435-3.554,3.1906-5.6138,4.2521-7.3065,4.019-6.4087,6.204-12.5376,8.5977-19.3011.128-.3617,4.4154-4.1987,4.8244-4.7544.9634-1.3091,2.151-5.7131,3.1664-7.7481.8547-1.7127,3.9129-5.523,4.1591-6.7674.3159-1.5966-.9382-3.1059-.7161-4.701.1112-.7983,6.2174-11.2446,7.0422-13.3365,2.5094-6.3643,1.4712-13.71,4.8273-20.0605.4239-.8021,1.4292-.751,1.5525-1.2715.7719-3.2608-1.7992-10.4734,2.5363-11.1533l-1.6629-.8297c-.6626-2.2761,1.052-1.3682,1.4527-1.8339.7343-.8534-.1037-3.0747.1958-4.3319.187-.7848,1.59-.4703,1.6592-.5648,1.3444-1.8355-1.991-.8879-1.7157-3.7165.2713-2.788,2.782-4.4363.8479-8.3131l1.7367-.5246-1.6905-1.2383,1.7103-3.3567c-4.7974-2.2566,1.0491-4.3012,1.6198-7.5894,1.277-7.358-.1431-17.308.0088-25.1352.1584-8.1678,1.2658-18.4696-.0062-26.7426-.3855-2.5071-3.1148-4.5439-.8858-8.3786-4.0698-1.8173-.8253-2.9571-1.6141-6.5556-.2998-1.3677-7.235-6.1276-1.6492-8.5655-3.8116-2.5384-.8392-5.3918-.9935-6.551-.2382-1.7902-3.1569-3.3356-3.214-3.6852-.4272-2.6168.4066-5.3542-.8807-8.8453-.2927-.7938-1.6002-.6345-1.6601-1.1516-.144-1.2451,1.0713-2.7443.931-3.9815-.0425-.3748-2.7538-4.9491-3.1283-5.81-.6489-1.4915.452-3.4959-1.9419-3.1023l1.6658-1.2412c-4.0476-1.7021-3.4643-6.302-4.7605-9.4677-.3972-.97-1.6444-.7968-1.904-1.6282-.5624-1.8014.89-4.2813-2.5473-4.424l1.6657-1.6543c-3.0147.3652-.8662-1.8554-1.2904-4.1393-.4241-2.2833-2.4844-3.2361-3.154-4.4478-1.0251-1.8549-4.5503-8.2482-4.7228-8.786-.7798-2.4318-2.4661-5.5441-2.5444-5.8763-.2461-1.0446.3343-2.4612-.1885-3.412-.3393-.617-7.8218-6.5574-7.9948-7.0619-.6289-1.8337.6447-3.1615.403-3.8358-.0764-.2131-2.7609-2.7654-3.1085-3.2924-4.6908-7.1106-9.1597-15.5046-14.7518-21.5132-1.1696-1.2567-3.9286-3.5207-4.5836-4.4631-.653-.9396-.4235-2.7056-.9881-3.3895-.7751-.9387-3.2617-.6284-3.8763-1.1437-.112-.0939.5274-1.1386.2031-1.5728-1.0446-1.3986-5.8642-9.4714-6.3264-9.8927-.1401-.1277-2.1365.4746-3.7642-.4479-3.3935-1.9231-9.8725-11.9594-13.269-14.0392-1.1717-.7174-1.8134-.0484-2.9501.0967,1.1389-4.4969-4.6279-5.1969-7.2489-7.0231-1.0805-.7528-2.751-3.7316-3.844-4.1752-1.5213-.6174-3.4235-.1733-4.6151-.7893-1.5717-.8125-3.2113-4.9219-3.7493-5.4337-.5074-.4827-9.2887-4.5027-11.3243-6.2745-.9042-.7871-.9303-3.0491-1.0791-3.1485-.4266-.285-1.7148.8791-2.336.6387-.2087-.0808-2.9672-3.1341-3.1909-3.1387-.805-.0166-2.368,1.1715-2.8351.8427-.189-.133-.2813-2.7335-1.0213-3.2007-.6052-.3821-2.0354.0074-3.1564-.6279-2.0166-1.1429-4.0771-5.3186-7.8689-4.5169l-.5426-2.5527-1.6538,1.6628c.2378-.719-2.5014-3.0548-2.6956-3.1248-.7441-.2682-2.2273,1.1136-3.074.5386-.2796-.1899-.4839-1.805-1.3075-2.4657-2.0858-1.6731-5.4643-3.3137-7.7257-4.8962l-1.483,1.5035c-2.4928.0208-3.7468-2.0308-4.5478-2.324-6.5869-2.4109-13.661-3.2447-20.0814-5.7153-11.1364-4.2854-24.2904-6.1412-36.4852-8.6637-.6473-.1339-.5187-1.3879-.9765-1.5351-.8288-.2665-7.775,1.5887-9.644.7035l.8494-1.6632c-3.7131,1.0699-3.1918-1.5155-3.3829-1.6654-.1603-.1258-1.9602,1.4886-3.6999,1.7077-1.6129.2031-7.7743.2705-9.1123-.0624-.6303-.1568-.4955-1.5319-1.1507-1.664-1.2303-.2481-10.3074-.2371-11.6317-.0626-1.6245.214-1.085,2.9749-4.3659,1.4527Z" style="fill: #441800;"></path>
    <path d="M558.4743,548.9383c.4448.3093-.4644,1.85,1.4242,1.4531.7715-.065.1151-1.5087.9636-1.7152.4432-.1079,8.1652-.1305,9.1235-.0616,1.6293.1172.598,2.2758,4.1965,1.8451l2.0521-1.7449c-.0818.6226-.1538,1.3852.6019,1.6435,3.1654,1.082,7.9322-.2785,11.3245.9451,1.4974.5401,6.3895,3.5319,7.9809,4.0575,1.3247.4376,3.2805-.0718,4.7055.8089,1.1335.7006.8343,2.6318,1.57,3.2558,1.3606,1.1542,4.0772-.4383,7.8719,3.8332,3.5239,3.9666,5.1851,8.659,7.9406,12.5904,1.7724,2.5289,3.9951,1.057,2.4452,6.3692l2.5191.0169-.8564,1.6643c1.4138.2226,3.7083-.4782,4.8621.1887.83.4797,6.0821,7.8677,6.8922,9.2784.3615.6296,1.582.502,1.55.9631-.1861,2.6776-.7966,5.6854-.7756,8.4117.0133,1.7309,1.0919,3.9603.9521,4.9285-.0836.579-2.411,1.1857-3.327,2.7273-.6541,1.1008-4.1934,9.9948-4.895,11.8678-.7531,2.0105-.7754,7.831-1.1766,8.4611-.331.5199-2.4028.3695-3.049,1.1442-.5914.7089-.9039,4.0208-1.6289,5.4686-1.7162,3.4271-6.9536,9.4649-7.5308,13.3275-.2013,1.3474,1.0042,2.949.5353,4.4147l-3.2014,1.0004.6677,5.6486c-4.5025,1.311-2.3468,2.533-2.4588,4.644-.0893,1.6838-10.907,25.6709-12.5583,29.5696-2.3724,5.6011-1.5855,9.6093-3.2147,14.1969-.4428,1.2469-2.1421,1.8463-2.9661,3.74-1.0073,2.315-5.1249,15.9879-5.2942,17.8219-.2355,2.5504,1.2939,6.616.608,9.1865-.2533.9493-2.1539.8756-2.308,1.7654-.0783.4521.4885,8.5966.6177,9.1561.1382.5984,1.3901.5685,1.4491.7036.2112.4833-.7123,1.588-.4264,2.5433.7306,2.4405,5.8296,9.1681,7.759,10.7879,2.7785,2.3326,7.8826,1.691,10.7759,2.4337.6343.1628.8929,4.2495,2.7627-.0274,3.7969.4862,7.6124,1.948,9.5327-2.4671l1.6517,1.6599c-.1044-2.8128,2.8781-1.9045,4.768-2.8114.6891-.3307,1.9377-2.8457,2.1067-2.9061.9553-.3411,1.8758.696,2.7003.7029.8043.0068,11.075-8.4367,12.0371-9.408.7463-.7534.6355-2.7151,1.154-3.0434,1.2489-.7908,6.6104-.907,9.0942-3.9075,1.0694-1.2919.5349-2.6882,1.0557-3.5367.5246-.8546,3.3355-1.3429,3.7818-2.1178.4369-.7587-.0651-2.1461.4344-2.8789.7716-1.1322,3.8053-2.9322,4.8162-3.9973,4.4111-4.6473,3.683-6.6249,11.2646-6.3161.9143.0372,6.6405.8726,6.9419,1.0526.3376.2016.4872,1.3061,1.1367,1.779.7288.5306,1.9729.3568,2.4923,1.0562.5862.7893.3828,2.7556,1.1855,3.6719.8109.9257,2.5178.6156,2.8061.928.4491.4869-.0679,3.718.3078,5.1535.6082,2.3235,1.6247,5.1771,2.3531,7.5523.2344.7643,2.8691.5523,1.6182,2.247-.066.0894-1.4478-.2275-1.6589.5657-.5429,2.0401.3885,5.0306-.3683,7.872-.1215.4562-4.0144,7.9069-4.2935,8.2877-1.8628,2.541-7.5164,4.8946-8.5377,6.1176-.4834.5788-1.2075,4.7048-2.8782,5.4172-5.8609,2.4993-5.8548,4.9491-10.6907,9.1125-1.3185,1.1351-4.444,2.3033-5.8136,3.385-1.0276.8116-1.9579,4.7432-2.6443.3867l-1.2101-.05c-3.0154,4.8076-9.0216,5.1161-13.9936,7.6268-1.1021.5565-.1714,2.5724-3.1883.7439l-.0152,2.5168c-1.5427.5307-3.4354-.8988-4.532-.8464-.4873.0233-.3592,1.4108-1.0951,1.645-3.4401,1.0949-3.2737,1.2918-5.5037,2.3144-4.3152,1.9787-18.1251,2.8016-23.6852,2.3327-1.7161-.1447-4.8908-.5016-4.9906-2.0968l-1.2329.038-.043,1.607h-1.6211c.2727-2.6525-2.0507-1.2602-3.7404-1.6873-1.9393-.4902-6.5214-2.3628-6.9273-2.4474-4.6548-.97-8.9312,1.6589-10.3329-5.8892l-3.2263.7657c-.3117-4.9728-6.1415-5.5928-7.4331-6.8496-.2954-.2874-3.3074-5.8974-4.1396-7.1282-1.8667-2.7608-3.0801-6.3162-5.4053-10.3826-.3941-.6893-1.5-.7883-1.5861-1.2877-.2902-1.6834,1.0659-3.423.8979-4.7575-.0772-.6128-3.8442-8.2961-4.1565-11.0344-.4467-3.9168.1637-8.157-.0806-12.1155-2.4175-.5344-1.8302,2.2249-3.3279,3.7873-5.7359,5.9839-13.7693,14.0078-19.0235,18.8131-4.2311,3.8697-8.7374,3.9033-11.9812,6.3376-1.2727.9551-1.0723,2.6515-1.9777,3.5252-1.6189,1.5622-6.4577,2.4957-8.32,3.6016-2.1852,1.2977-4.9255,4.286-7.1676,5.7635-1.377.9074-5.94,1.9707-6.0417,4.2541l-1.6491-1.6594c.1929,2.884-3.4434,1.4978-5.2644,2.4762-5.3571,2.878-6.7338,6.3992-13.6559,5.9989-.2984-.0173-3.9887,3.2339-4.2832,3.2851-2.1415.3721-3.8101-2.2712-4.5549,1.5501-1.3476-.5057-5.8144-.9958-6.9126-.6788-3.5498,1.0247-5.8313.6947-8.5113,1.5138-1.5266.4666-1.0337,1.6534-2.4522,1.8333-1.3709.1739-5.3796.2053-6.6161-.075-.7752-.1757-.2172-2.3111-2.6577-1.6802-.2304.0596-.7592,2.9106-3.7769,1.6861l.8488-1.6629h-2.525s.8489,1.6628.8489,1.6628l-2.098.0231c-.2989-.086-.3306-1.5517-.9759-1.6838-7.9562-1.6288-19.7733-5.0793-27.8911-9.7084-1.8187-1.0371-7.5506-6.0422-8.8095-7.9239-2.6797-4.0054-4.9137-7.5051-7.7886-11.5279-.5026-.7033-4.356-4.6504-4.4131-4.9781-.1928-1.1061.5584-2.237.3022-3.6083-.3868-2.0704-2.7836-3.6868-2.8204-3.9257-.3484-2.2579-.0361-2.7697-.7541-5.751-1.9421-8.064-1.1643-15.4903-1.2225-24.3851-.0196-2.9898-.903-8.7144-.5615-11.4813.0831-.6731,2.4543-.2564,1.7331-2.6328l-1.7079-1.6637c2.9344-.761,1.2161-2.6682,1.6974-4.8835.1387-.6383,1.5144-.5145,1.6595-1.1402.5044-2.1751-.622-3.498-.7298-4.9337-.0311-.4142,1.7392-.2853,1.9847-1.9004.2163-1.4228-.7695-3.147-.44-4.6212.0709-.3171,2.4438-4.1757,2.5295-4.4891.2638-.9644.8711-4.8639,1.0399-5.109,1.0864-1.5765,3.3334-.2772,1.4206-5.4683,4.432-2.2595,2.3003-2.404,2.5578-5.0309.0281-.2862,3.5854-2.2234,2.5466-4.7568l1.6618.847c.5683-2.7703,1.4316-7,2.5242-9.4769.167-.3787,1.2093-.4916,1.6054-1.248.9093-1.7367,1.4104-4.5654,3.0414-6.0815.9415-.8752,1.9981.1313,2.0485.0422.3567-.6313-.1915-5.0808.8317-6.9302.7443-1.3453,2.6832-.7905,3.4428-1.9986.9495-1.5102.4239-4.6644.9074-5.1843.2985-.3209,1.7352-.0163,2.7415-1.0322.6268-.6328,3.548-4.8219,4.6647-6.185,10.601-12.9405,18.9002-24.7503,31.5453-36.3834,1.7366-1.5977,3.5181-3.9787,3.7498-4.1755.5288-.4491,2.0981.1723,3.0331-.334,1.1438-.6193,8.0987-7.8341,10.1366-9.5757,5.868-5.015,13.8392-11.6018,21.0201-12.8728-.5364-3.7863,3.4033-2.3808,3.4342-4.9992l1.6496,1.6632c.1893-3.0143,5.9871-3.6327,8.2041-4.7624.9487-.4835.95-1.5212,1.6643-1.8906,1.6241-.8398,4.6516.0091,4.4046-2.5542l1.652,1.6609c-.4172-2.7899,2.1154-1.1926,3.6076-1.6952.6613-.2227.6194-1.2761.817-1.3573.8654-.3554,2.7885.0652,3.1401-2.7995l1.6568,1.6641.5059-1.6832,1.6108.7288c.8637-2.7678,2.8541-1.0724,4.8996-1.5335.5205-.1173,1.0838-4.3698,2.6231.0008l1.6788-.0349c.8688-.369.9174-2.325,1.8455-2.5277,4.0911-.8938,9.8071-1.0203,13.8826-2.5482.7942-.2978,1.902-4.0904,3.5481.0775l1.6756-.0025c.9279-3.3777,5.3707-1.1118,7.9743-1.167,1.8064-.0383,2.4686-.1396,4.5803-.1056,1.7157.0276,4.7331-1.1626,6.1363-.1866ZM559.2551,586.6929c-4.2126-1.9273-24.8875,2.1176-28.7372,3.8575-4.6061,2.0817-8.4818,3.5253-13.0311,5.4464-3.4778,1.4686-5.1009,2.257-8.1537,3.1716-.7602.2277.5451,2.0887-3.8062,2.3568-.6404.0395-.4077,1.4815-1.0858,1.6485-1.3395.33-3.2671-.456-4.5083.3836-.7824.5293-.6606,2.5564-1.638,3.3855-.992.8415-3.0744.7697-4.3821,1.3261-1.1629.4948-3.0464,1.0118-3.2069,1.1335-1.0699.8113.1028,3.9496-3.3092,3.0051l.8554,1.6639c-4.1523-.8745-3.9796-.6878-6.7471,2.3187-.4974.5403-.4087,2.0008-.9749,2.5278-1.2724,1.1846-6.1291,2.1181-6.9741,2.6176-3.9756,2.3503-5.1077,7.8365-6.6525,9.3411-1.1582,1.1281-2.9592.4813-3.6361.9516-.7848.5452-.4746,3.0704-1.224,3.8294-.4531.4588-2.186.462-3.2119,1.3738-.4604.4092-7.6826,8.641-8.0342,9.1467-.5932.8533-.043,2.4823-1.0714,3.5513-.771.8015-2.8157.7905-3.2121,1.4033-.4198.6492.0117,2.146-.644,3.1255-1.6524,2.4685-5.2157,5.6074-7.6086,9.1543-10.5816,15.6846-20.6633,33.3392-25.6905,51.385-1.1455,4.1119-.2821,3.237-.5442,6.0391-.0511.5468-1.5531.4325-1.7144,1.0837-1.2464,5.0318-.5901,11.5576-.766,16.6189-.0881,2.5348-1.2315,5.1874-.9025,7.454.4591,3.163,5.1248,7.4569,5.7992,11.0405l2.5643-.4737c-1.0819,4.234,3.1915,5.0585,6.7092,5.0332.068.052-.7482,1.0156-.5842,1.4741,1.1708,3.2728,14.4322,2.5301,17.643,2.6873l1.3617,1.6878c-.0883-.6492-.0983-1.3106.6171-1.6385,2.0979-.9616,7.942-1.7039,10.5105-2.5943,2.0163-.699-1.274-.8933,3.4649-.7937.4882.0103,6.4718-5.0025,7.8598-5.7978,4.0138-2.2996,11.8029-5.493,15.1-8.6306,1.5802-1.5037.5763-4.4615,6.0446-4.0109l-.845-1.6615c5.1287,1.2724,4.3753-6.1837,9.1688-4.207-.2687-4.1708,2.3398-2.6004,3.996-3.6046,3.8826-2.3541,9.476-9.7147,13.4297-13.1373.7479-.6474,2.8777-.8713,4.458-2.0715,5.0783-3.8568,9.4956-12.0441,14.8491-17.2473.4988-.4848,1.9326-.4007,2.5146-.9909,1.0496-1.0644,1.0576-4.5374,2.0593-5.4942.9475-.9049,3.0368-.516,3.8155-1.2712,2.1337-2.0691,5.6629-8.2227,7.7877-10.8277,2.3323-2.8594,7.314-5.7684,8.0704-9.6214.1783-.9083-.8228-2.4133-.5885-2.7499.4202-.6039,2.9481.6517,4.6044-4.6687,1.4924-4.7939,1.9504-3.8553,4.1641-7.995,1.5725-2.9407,2.1768-7.2543,4.6479-9.575l-1.6238-.4429c-1.1631-1.3769,2.4616-2.5731,3.2314-3.9858,2.9636-5.4383,5.6237-11.2068,8.5249-17.0998,1.2489-2.5369,4.5511-2.8469,2.4464-8.2239l1.6744.4253c-1.418-3.3604,1.4089-4.6005,1.6086-5.2438,1.605-5.17,1.9721-8.3891-.4398-13.5304-.4453-.9492-6.7831-8.7539-7.2714-9.0691-1.1432-.738-4.1921-.6094-5.8247-1.1451-3.1576-1.0361-8.0247-2.5126-10.9367-3.8448Z" style="fill: #441800;"></path>
    <path d="M430.1938,829.7376c11.8407,5.281,16.187-.1118,26.4699,2.2638.629.1453.5169,1.5051,1.1429,1.6466,2.7936.6312,7.2438-.1853,10.4968.9317,1.0112.3472,2.436,3.2645,2.844,3.2672,1.0954.0072,2.5683-1.1839,3.9521-.8939.4549.0953,5.6393,4.9843,7.0557,5.916,1.047.6887,2.7645.5057,3.39,1.0318.2307.1941,1.901,3.4466,2.9975,4.9302,2.6961,3.648,5.4781,8.7983,7.4988,11.4524,3.8879,5.1065,4.6638,7.1935,6.4011,13.2615,2.2063,7.7063,3.2961,23.5129,1.3575,32.1122-1.6191,7.1824-2.5976,14.2421-6.4222,22.0602-.4023.8224-8.6805,13.9787-9.3561,14.6258-1.6822,1.6111-7.0507,2.176-7.414,6.9302l-3.2405-.7956c.4904,1.1665-3.1693,5.4796-3.5793,5.6417-1.2023.4754-2.696-.052-3.3546.2648-.9693.4663-5.8191,4.1313-6.212,4.1895-1.4342.2123-2.394-.709-3.272-.7843-.4196-.036.0429,1.4665-1.5575,1.6625-4.3057.5273-12.2645-1.0537-15.8605-.0876-.6714.1804-.4493,2.9293-2.1945,1.6571-.0873-.0637.2226-1.4531-.563-1.6587-1.5876-.4155-3.8732.3913-5.6188.0112-.6365-.1386-.5198-1.5951-.9079-1.5766-1.2799.061-2.9393,1.3169-4.9236.7777-.9455-.2569-.8248-2.1196-1.7796-2.2936-1.1241-.2049-2.654.8602-5.2011-.1141-5.0373-1.9269-9.9021-4.9675-15.1677-7.0894-.279-.1124-2.5872-3.4552-3.3478-3.9832-8.0204-5.5676-9.6943-7.1127-16.4918-15.1242-2.1357-2.5171-3.9242-.1202-2.1886-5.7661-4.566-.1822-4.6278-5.3711-7.4854-8.034-1.2711-1.1845-2.8269-1.5665-4.1796-2.5214-1.2886-.9097-3.4433-3.0119-4.8266-3.7291-1.088-.564-2.796-.5143-3.4142-1.0184-1.5216-1.2408.338-4.4084-3.4255-2.4759-.5332-2.575-9.794-10.2071-10.0462-10.9086-.2765-.769.6784-1.5245.4825-2.1771-.0642-.2139-3.1158-2.9713-3.1221-3.1945-.0305-1.0776,1.1205-2.4345.8672-3.9855-.0962-.5893-1.4204-.5153-1.5219-.9372-.9212-3.8321.3151-3.4454-1.8586-7.7211-2.152-4.2331.9127-5.8844.818-9.8974-.173-7.3248-.0363-7.9211,2.4143-14.5072.6992-1.8792,2.6718-7.6475,3.423-8.7818.8644-1.3052,4.7902-2.6944,6.4283-4.7765,1.0905-1.3861.3158-2.3513.415-2.424.2293-.1681,4.1666-2.3006,4.7567-2.592,7.3705-3.6391,14.4368-4.143,22.2284-5.9051.6692-.1513.2202-1.5234,1.774-1.7262,3.3427-.4362,39.1299,1.8698,41.3195,2.8464ZM409.3145,848.9603c-1.2861-1.1256-16.2616.6298-19.5005-.1885-5.4884,1.5486-9.7815,2.5292-14.5618,6.4033-.8233.6672-6.8002,7.0583-6.8792,7.5634-.2259,1.4427.7139,2.4008.7747,3.2491.0278.388-1.4332.2618-1.583.9131-.2364,1.0273-.3682,10.9267-.0385,11.4291.367.5594,1.523.5972,1.567.7091.1884.4787-.8568,1.4222-.5666,2.2355.1946.5455,7.3894,6.4959,8.595,7.7663.9058.9545.8952,2.4146,1.5424,3.1172.8512.9241,3.6549.4103,4.9708,1.0413,1.0057.4822,2.5226,3.1754,3.4753,3.8654,8.3959,6.0802,10.1617,9.9941,16.3906,18.4096.7907,1.0682.7619,2.9213,1.7385,4.1255,1.5341,1.8914,4.2219,1.6066,4.87,2.2569.7718.7745.5105,4.7837,3.1403,5.3122.5225.105,1.705-.6866,2.0123-.4617.3736.2733.1613,2.5427,1.4756,3.4026,2.9582,1.9355,9.3296,3.8752,12.6012,5.2608,4.457,1.8877,7.3536,1.0752,12.2397,2.2337.703.1667.2608,1.7025,1.8005,1.75,2.8493.0879,10.8803-.283,11.3573-3.434l1.2361,1.6916c2.5097.7976,2.0717-1.6114,2.9161-2.1103,1.1947-.7059,6.3986-2.0681,8.1869-3.1566.8375-.5098,9.1104-11.598,9.8196-13.1259.2507-.54-.4727-1.5792-.175-2.3587.5268-1.3794,4.7517-1.2551,2.3137-5.2603l1.675.4252c-1.0067-4.4123,2.3219-4.8606,2.5207-9.2535.1221-2.6981-.9569-4.8299-.9062-6.7151.0696-2.5869,2.6326-2.7485.0235-5.8158l1.74-1.6599c-1.9655-2.1824-1.2172-4.4869-1.7361-6.5581-.1726-.689-1.5068-.5508-1.6478-1.1607-.4485-1.9407.742-3.8565.2093-5.8956-.2746-1.0509-7.8607-11.8378-8.6351-12.3406-1.0107-.6563-2.5027-.228-3.1316-.6293-.7426-.4739-.8495-3.0865-1.0233-3.2022-.4385-.292-1.7976.9054-2.3628.6743-4.2183-1.7246-7.8824-4.9069-13.56-5.355-2.7023-.2133-6.9884,2.2933-7.9593-1.1841-1.9112-.4188-.8611,1.4337-1.7917,1.6954-1.8498.5201-3.6795.2589-4.0726-1.7021l-2.0973.0225.8492,1.6628c-3.4685,1.5771-5.2846-1.6256-5.6042-1.6814-4.2398-.739-7.6035-1.0003-12.4112-1.6347-2.4422-.3223-6.1227-1.5779-8.3772-2.5602l-1.2582,1.6841c.0206-.4298.1096-1.2181-.1618-1.4557Z" style="fill: #441800;"></path>
    <path d="M441.9534,869.1054c.237.1412.1764,1.431.6712,1.4583,5.2257-2.4078,5.2602.0444,8.246,2.9942.5111.505,1.9326.4046,2.5655,1.1731,1.2922,1.5689,2.4442,7.3555,5.472,7.554l-1.6819,1.2448,1.706.9571-.0565,15.6126c-3.3742,2.1566-3.891,6.2605-7.073,9.0077-1.1297.9753-3.3034.9405-4.313,3.2001-7.5097-.1545-17.868,2.0036-22.5238-4.8895l-1.2411,1.6655c.4481-2.5709-3.2894-1.6584-4.0442-2.679-.8203-1.1092-1.1995-7.5506-4.3431-7.3815l1.6909-1.2381c.7782-2.2715-1.6173-2.0076-1.7182-2.6539-.3067-1.9644.8684-3.5781.7934-4.957-.1021-1.8764-3.5858-3.2378-.006-4.0621l-.7241-7.1513c5.4687.7814,4.4671-2.5251,6.0075-4.0365.8118-.7964,4.6735-1.5222,6.3226-2.5063,1.3361-.7973,1.811-2.5499,2.4711-2.7279.5693-.1535,11.2719-.886,11.7785-.5843Z" style="fill: #441800;"></path>
  </g>
</svg><style>@media (prefers-color-scheme: light) { :root { filter: none; } }
@media (prefers-color-scheme: dark) { :root { filter: none; } }
</style></svg>